<svg xmlns="http://www.w3.org/2000/svg" width="559" height="1210" viewBox="0 0 559 1210">
<g>
<path d="M 119.32 1200.59 C103.86,1196.77 101.43,1193.85 102.26,1180.05 C102.57,1174.84 103.60,1169.35 104.89,1166.00 C107.99,1157.98 110.66,1147.16 113.01,1133.13 C115.21,1119.94 116.88,1114.82 120.11,1111.38 C121.22,1110.20 122.74,1106.82 123.49,1103.87 C125.28,1096.80 127.33,1080.29 126.64,1078.50 C126.34,1077.72 123.87,1075.95 121.15,1074.57 C118.42,1073.19 115.22,1070.82 114.02,1069.30 C112.08,1066.83 111.91,1065.77 112.49,1059.52 C112.85,1055.66 113.84,1048.68 114.70,1044.00 C115.89,1037.56 116.45,1024.25 117.01,989.00 C117.82,938.45 118.26,933.69 124.18,912.00 C125.91,905.67 129.72,894.52 132.66,887.22 C135.60,879.91 138.00,872.49 138.01,870.72 C138.01,865.37 140.03,859.76 143.77,854.65 L 147.32 849.79 L 145.54 844.84 C143.38,838.83 143.94,834.20 147.47,828.86 L 150.03 825.00 L 149.35 773.49 L 148.67 721.99 L 142.09 718.86 C138.46,717.14 133.48,714.78 131.00,713.62 C128.52,712.45 123.31,708.35 119.41,704.50 C112.39,697.57 112.27,697.37 108.16,685.00 C103.42,670.76 103.21,667.79 105.51,647.50 C107.37,631.08 107.37,625.24 105.52,616.50 C104.70,612.65 104.03,604.65 104.02,598.73 C104.00,588.81 100.61,561.43 95.38,529.00 C94.28,522.15 93.67,512.42 93.64,501.00 C93.60,485.59 93.91,482.02 96.30,471.12 C97.78,464.31 99.00,456.66 99.00,454.12 C99.00,451.58 100.10,444.95 101.45,439.39 C102.80,433.82 104.03,425.35 104.20,420.51 L 104.50 411.74 L 101.00 410.51 C96.83,409.04 88.20,403.37 85.78,400.53 C83.08,397.33 83.68,392.19 88.10,380.94 C101.82,346.00 109.90,320.47 114.91,296.27 C117.35,284.47 118.71,280.40 123.04,271.83 C136.01,246.15 146.43,237.28 175.00,227.55 C180.77,225.58 186.40,223.55 187.50,223.02 C199.90,217.11 213.04,212.00 215.85,212.00 C219.02,212.00 227.03,206.87 231.12,202.21 C236.35,196.25 238.17,190.85 238.75,179.58 C239.18,171.02 239.01,169.25 237.63,168.11 C236.73,167.36 236.00,165.75 236.00,164.51 C236.00,163.28 235.18,161.20 234.17,159.88 C233.17,158.57 230.92,154.57 229.18,151.00 C227.44,147.43 222.38,139.32 217.93,133.00 C208.01,118.87 204.76,112.62 201.45,101.30 C196.55,84.53 197.30,68.43 203.65,54.07 C205.25,50.45 205.69,48.43 204.97,47.98 C203.57,47.12 209.65,39.81 215.47,35.37 C217.88,33.53 220.14,31.15 220.47,30.09 C221.45,27.00 230.00,19.96 236.50,16.89 C246.49,12.17 260.07,7.82 268.00,6.81 C280.76,5.18 287.71,6.24 307.29,12.80 C323.53,18.24 325.58,19.20 330.79,23.74 C337.08,29.23 343.22,38.45 342.54,41.39 C342.31,42.43 343.16,44.68 344.43,46.39 C348.56,51.93 349.32,56.20 348.59,69.91 C348.22,76.83 347.81,86.55 347.66,91.50 C347.52,96.45 347.03,102.84 346.57,105.70 C345.96,109.49 346.21,113.36 347.49,119.97 C349.69,131.29 349.26,133.77 340.32,161.26 C335.00,177.61 333.20,181.95 330.81,184.18 C327.40,187.36 322.69,188.50 316.48,187.65 L 312.11 187.05 L 311.40 191.78 C311.01,194.37 310.65,200.61 310.60,205.64 C310.52,213.31 310.81,215.12 312.40,216.89 C313.45,218.05 315.13,219.00 316.13,219.00 C318.47,219.00 326.00,221.99 326.00,222.92 C326.00,223.85 343.39,232.42 348.50,234.01 C350.70,234.70 353.00,235.66 353.62,236.15 C354.24,236.63 357.16,237.75 360.12,238.63 C373.81,242.69 386.86,252.98 393.81,265.19 C401.81,279.25 406.33,294.01 409.98,318.00 C412.47,334.39 416.96,351.90 425.59,378.81 C429.17,389.98 431.85,399.91 431.54,400.89 C431.23,401.86 427.04,404.84 422.24,407.50 C417.43,410.17 413.32,412.49 413.09,412.66 C412.87,412.84 412.78,416.02 412.89,419.74 C413.32,433.74 414.49,438.04 422.40,454.72 C432.30,475.62 435.12,486.66 438.54,517.92 C441.94,549.09 445.79,570.15 451.99,591.50 C453.59,597.00 455.40,604.65 456.01,608.50 C457.18,615.89 463.22,634.95 469.57,651.26 L 473.36 661.02 L 471.21 667.26 C470.02,670.69 468.54,676.65 467.90,680.50 C467.26,684.35 465.94,689.08 464.95,691.00 C461.80,697.16 449.55,707.49 440.42,711.67 C435.14,714.08 434.79,714.12 432.97,712.47 C431.52,711.16 430.09,710.89 427.10,711.37 C422.87,712.05 420.00,710.39 420.00,707.26 C420.00,706.38 419.24,704.82 418.31,703.79 C416.72,702.03 416.72,701.74 418.42,698.86 C419.97,696.25 420.04,695.45 418.94,693.38 C417.72,691.10 417.96,690.68 423.32,685.90 L 429.00 680.84 L 429.00 669.31 C429.00,658.58 428.76,657.13 425.50,648.43 C421.56,637.92 421.02,630.82 423.51,622.59 C426.26,613.52 425.75,611.44 416.00,592.23 C411.05,582.48 405.89,573.15 404.54,571.50 L 402.07 568.50 L 402.04 574.79 C402.01,579.00 401.35,582.35 400.04,584.92 L 398.09 588.75 L 403.07 616.63 C412.21,667.75 414.63,695.23 413.70,737.50 C413.14,763.06 411.94,777.08 408.05,803.29 C404.96,824.15 404.79,826.95 406.01,836.50 C407.54,848.49 407.38,858.30 405.54,865.00 C403.58,872.12 403.61,876.98 405.64,882.05 C407.01,885.48 407.10,887.19 406.20,892.62 C405.52,896.74 405.45,901.17 406.01,904.80 C407.95,917.35 409.00,941.57 409.02,974.19 C409.03,993.06 409.47,1011.42 410.00,1015.00 C411.63,1026.12 412.93,1041.07 413.19,1051.72 C413.43,1061.70 413.37,1062.00 410.63,1064.87 L 407.82 1067.80 L 409.51 1075.40 C411.03,1082.21 411.44,1083.00 413.54,1083.00 C417.98,1083.00 420.88,1084.93 425.12,1090.70 C430.73,1098.34 439.43,1107.44 450.50,1117.22 C455.45,1121.60 460.41,1125.99 461.52,1126.97 C464.02,1129.19 482.92,1139.00 484.70,1139.00 C485.41,1139.00 486.00,1139.34 486.00,1139.75 C486.01,1140.16 488.02,1141.33 490.47,1142.34 C501.20,1146.75 509.01,1156.32 508.96,1165.00 C508.93,1169.47 507.76,1170.89 500.95,1174.76 C486.18,1183.16 448.84,1183.75 426.00,1175.95 C408.59,1170.00 400.66,1168.19 389.00,1167.50 C372.34,1166.51 356.57,1164.35 353.15,1162.58 C347.51,1159.66 346.00,1156.58 346.00,1147.99 C346.00,1143.67 346.66,1138.37 347.50,1136.00 C348.33,1133.66 349.01,1128.54 349.03,1124.62 C349.08,1114.64 351.56,1098.31 353.49,1095.38 C354.38,1094.02 356.21,1092.41 357.55,1091.79 C358.43,1091.40 359.03,1091.15 359.40,1090.71 C360.24,1089.71 359.89,1087.72 358.84,1080.78 L 357.66 1073.05 L 351.41 1070.97 C347.97,1069.82 344.61,1068.23 343.94,1067.43 C343.27,1066.62 341.66,1057.76 340.36,1047.73 C337.18,1023.22 333.81,1006.12 329.09,990.50 C319.54,958.91 318.76,952.77 319.08,912.00 C319.29,884.46 319.11,880.03 317.66,876.78 C315.70,872.40 315.57,868.64 317.16,862.70 C318.22,858.74 318.08,857.86 315.54,852.43 C313.17,847.36 312.65,844.62 311.98,833.48 C311.15,819.80 309.44,811.62 298.34,768.08 C290.20,736.15 288.41,728.66 285.95,716.25 C284.72,710.06 283.36,705.00 282.92,705.00 C282.48,705.00 280.95,708.94 279.52,713.75 C275.14,728.51 266.29,755.91 262.16,767.50 C260.00,773.55 255.90,788.17 253.04,800.00 C246.70,826.25 242.84,839.16 238.41,849.00 C236.55,853.12 234.12,860.46 233.01,865.31 C230.77,875.09 229.50,877.95 223.79,886.06 C220.21,891.14 219.81,892.38 219.02,900.82 C218.36,907.81 217.52,911.17 215.51,914.75 C213.39,918.55 212.50,922.41 210.97,934.49 C208.21,956.18 203.72,977.55 198.47,994.00 C191.44,1016.06 188.73,1028.86 187.03,1048.00 C185.08,1070.06 184.29,1073.54 180.50,1076.87 C178.67,1078.47 175.61,1080.30 173.71,1080.93 C170.83,1081.88 170.15,1082.67 169.67,1085.63 C168.80,1091.02 170.10,1109.30 171.48,1111.00 C174.04,1114.15 174.41,1117.17 175.11,1140.00 C175.61,1156.69 176.28,1165.08 177.41,1168.97 C179.54,1176.31 179.57,1191.74 177.45,1194.77 C175.23,1197.94 173.13,1198.84 162.81,1201.04 C149.75,1203.83 131.64,1203.65 119.32,1200.59 ZM 161.41 579.87 L 160.72 589.90 L 165.55 585.40 C172.69,578.75 182.92,572.75 199.41,565.56 C215.80,558.40 224.89,553.05 236.00,544.01 C240.12,540.66 246.97,535.14 251.20,531.74 C255.44,528.35 258.76,525.42 258.58,525.25 C257.73,524.39 240.56,531.60 232.07,536.37 C219.46,543.47 215.91,545.24 215.37,544.70 C214.75,544.08 232.19,532.91 239.50,529.24 C255.98,520.97 272.51,517.44 283.30,519.88 C293.89,522.29 310.74,522.83 326.00,521.27 C342.83,519.55 351.34,519.60 354.94,521.47 C362.16,525.21 383.34,553.54 393.26,572.72 C395.04,576.17 396.90,578.99 397.39,579.00 C397.90,579.00 397.92,575.30 397.44,570.25 C396.98,565.44 396.57,552.28 396.53,541.00 C396.49,529.16 396.66,523.83 395.18,518.99 C393.70,514.12 390.56,509.76 383.90,499.81 C374.64,485.97 368.05,474.03 364.58,464.82 C360.34,453.55 355.38,432.04 357.50,434.17 C357.78,434.44 359.54,440.26 361.42,447.08 C363.30,453.91 366.41,463.16 368.33,467.64 C374.17,481.23 387.95,502.45 385.69,494.37 C385.40,493.34 384.87,487.33 384.52,481.00 C383.54,463.69 379.23,424.86 376.98,413.20 C374.80,401.86 374.55,399.10 375.85,400.55 C376.31,401.07 377.28,404.87 377.98,409.00 C379.58,418.29 380.45,416.55 381.46,402.00 C381.90,395.66 383.40,386.94 385.23,380.00 C387.42,371.74 388.41,365.36 388.76,357.35 C389.34,344.05 388.06,337.34 381.00,316.59 C373.96,295.92 372.74,284.44 379.60,303.50 L 382.48 311.50 L 383.17 307.00 C383.54,304.52 383.89,297.64 383.93,291.69 C383.97,284.76 384.36,281.10 385.00,281.50 C385.61,281.88 386.00,289.49 386.00,301.01 C386.00,318.67 386.80,325.00 389.03,325.00 C389.98,325.00 400.00,299.78 400.65,295.73 C401.64,289.65 391.41,267.15 383.66,258.36 C378.31,252.27 369.62,246.69 361.19,243.93 C357.51,242.72 350.18,239.77 344.89,237.37 C339.61,234.97 334.69,233.00 333.96,233.00 C333.23,233.00 331.70,232.16 330.56,231.13 C329.43,230.11 327.26,228.48 325.75,227.52 L 323.01 225.77 L 323.63 231.74 C324.01,235.39 323.79,239.11 323.05,241.33 C321.42,246.30 315.01,251.55 308.66,253.13 C301.82,254.84 285.13,254.58 276.90,252.65 C258.07,248.22 235.48,235.39 219.79,220.21 L 215.08 215.66 L 211.04 217.48 C208.82,218.48 207.00,219.63 207.00,220.02 C207.00,221.44 221.73,234.70 229.75,240.50 C234.24,243.75 237.71,246.62 237.45,246.88 C236.46,247.87 222.10,237.12 213.90,229.25 C209.17,224.71 204.84,221.00 204.29,221.00 C203.73,221.00 199.50,222.74 194.89,224.86 C190.28,226.99 181.23,230.57 174.79,232.83 C155.07,239.73 146.12,245.13 139.33,254.24 C133.43,262.16 124.39,278.79 122.62,285.00 C120.83,291.25 117.82,309.16 118.45,309.78 C118.95,310.28 105.75,349.16 96.13,375.50 L 89.20 394.49 L 97.85 395.74 C102.61,396.43 109.88,397.84 114.00,398.89 C129.52,402.83 166.90,417.39 170.80,421.03 C171.96,422.11 173.12,423.00 173.38,423.00 C173.63,423.00 175.26,417.04 177.01,409.75 C180.57,394.90 180.56,391.74 176.98,370.93 C174.75,358.00 174.56,355.65 175.94,358.00 C177.00,359.82 182.00,383.79 182.00,387.06 C182.00,388.47 182.35,389.02 182.88,388.45 C184.52,386.69 186.05,374.60 186.61,359.00 C187.20,342.45 187.76,338.80 189.04,343.00 C190.01,346.19 190.07,361.19 189.15,371.33 C188.75,375.63 188.72,379.33 189.07,379.54 C190.46,380.40 198.99,370.86 203.06,363.89 C207.09,357.00 207.77,355.78 208.16,355.87 C208.26,355.89 208.35,356.02 208.48,356.15 C208.75,356.41 207.44,359.82 205.57,363.72 C201.87,371.44 196.69,377.79 191.47,381.02 C188.65,382.76 187.94,383.99 186.96,388.79 C183.15,407.52 177.84,426.54 175.81,428.70 L 173.63 431.02 L 179.43 454.99 C182.63,468.17 185.46,480.88 185.72,483.23 C186.14,486.99 185.40,489.08 179.55,500.69 C175.89,507.94 172.41,515.37 171.81,517.19 C171.22,519.01 170.41,526.58 170.01,534.00 C169.39,545.53 168.76,549.13 165.69,558.67 C163.06,566.85 161.92,572.51 161.41,579.87 ZM 139.16 1077.51 C145.59,1079.76 147.74,1080.03 156.50,1079.69 C164.05,1079.41 167.77,1078.76 171.68,1077.06 C180.55,1073.21 179.93,1075.04 183.55,1042.12 C184.42,1034.21 186.28,1023.41 187.68,1018.12 C189.08,1012.83 190.69,1006.25 191.25,1003.50 C191.81,1000.75 193.54,994.56 195.10,989.74 C200.37,973.48 207.91,934.40 207.98,923.00 C207.99,921.05 209.38,916.88 211.12,913.60 C213.59,908.89 214.38,905.91 214.95,898.94 C215.61,891.06 216.04,889.69 219.27,885.18 C224.79,877.51 226.77,872.99 228.90,863.20 C229.98,858.26 232.18,851.57 233.79,848.35 C237.97,840.00 241.12,829.70 247.53,803.50 C250.62,790.85 256.47,770.60 260.53,758.50 C269.74,731.08 274.26,716.20 281.47,689.56 C287.79,666.24 288.89,663.50 292.29,662.64 C296.66,661.55 300.22,650.85 303.43,629.15 C309.18,590.31 311.70,560.04 309.66,554.25 C308.93,552.19 308.24,552.00 301.53,552.00 C297.50,552.00 288.90,551.09 282.42,549.99 C269.68,547.81 269.05,547.95 269.02,553.03 C269.01,554.42 268.28,556.58 267.40,557.84 C266.09,559.71 265.24,560.00 262.65,559.44 C257.34,558.31 256.71,557.24 257.26,550.39 L 257.75 544.22 L 253.96 543.61 C251.88,543.28 249.53,542.76 248.73,542.45 C247.00,541.79 234.17,552.01 234.71,553.62 C234.91,554.23 233.66,555.02 231.93,555.36 C229.67,555.82 228.95,556.42 229.36,557.50 C229.77,558.55 229.28,559.00 227.72,559.02 C226.50,559.02 220.14,561.72 213.60,565.02 C207.05,568.31 201.09,571.00 200.35,571.00 C199.61,571.00 199.00,571.42 199.00,571.93 C199.00,574.61 221.00,574.28 227.67,571.50 C230.52,570.30 231.00,569.50 232.06,564.08 C232.72,560.74 233.67,558.00 234.18,558.00 C235.00,558.00 234.58,562.77 233.35,567.25 C232.56,570.10 234.75,569.27 239.46,564.93 C242.15,562.45 245.37,557.86 247.69,553.18 C249.78,548.96 251.61,545.31 251.75,545.08 C251.89,544.85 252.30,544.96 252.66,545.33 C253.02,545.69 252.09,549.13 250.59,552.96 C243.60,570.75 227.80,578.48 203.70,575.87 C193.95,574.81 189.00,575.19 189.00,576.98 C189.00,579.02 197.94,580.44 211.00,580.47 C229.17,580.51 235.87,578.36 244.25,569.82 C250.88,563.06 251.99,563.46 245.87,570.41 C235.65,582.02 214.54,585.96 192.16,580.44 C186.88,579.14 184.35,578.92 183.17,579.66 C181.33,580.83 177.79,596.39 173.44,622.50 C170.50,640.12 170.02,642.18 169.30,640.24 C168.72,638.69 171.12,623.98 175.61,601.58 C177.47,592.28 179.00,584.03 179.00,583.27 C179.00,582.38 176.86,583.37 173.15,585.97 L 167.31 590.08 L 163.70 603.79 C161.72,611.33 159.57,620.67 158.93,624.55 C157.79,631.48 157.83,631.71 160.79,637.59 C162.45,640.88 164.14,645.81 164.54,648.54 C164.95,651.27 165.89,654.39 166.64,655.47 C167.39,656.56 168.00,659.71 168.00,662.47 C168.00,667.53 169.52,676.64 172.49,689.37 C173.98,695.72 173.97,696.37 172.45,698.06 C169.14,701.71 165.93,700.95 160.25,695.17 L 155.00 689.82 L 155.00 704.01 L 159.82 709.01 C162.48,711.77 164.44,714.22 164.19,714.48 C163.94,714.73 164.30,716.30 164.99,717.97 C166.00,720.40 165.99,721.60 164.98,724.05 C164.24,725.84 163.18,726.90 162.43,726.61 C161.72,726.34 159.46,725.80 157.41,725.42 L 153.67 724.72 L 154.36 775.06 L 155.05 825.40 L 151.80 831.74 L 148.56 838.07 L 150.28 842.92 C152.75,849.89 152.48,851.62 147.98,857.26 C143.74,862.59 143.43,863.41 142.61,871.76 C142.33,874.65 139.63,883.43 136.61,891.26 C123.82,924.49 122.98,930.08 121.99,988.00 C121.42,1021.08 120.77,1036.50 119.59,1044.50 C118.71,1050.55 118.19,1056.05 118.45,1056.71 C119.07,1058.34 129.88,1063.73 138.50,1066.70 C142.66,1068.13 149.04,1069.35 154.22,1069.70 C163.86,1070.35 165.21,1072.00 156.10,1072.00 C148.51,1072.00 136.36,1068.83 126.84,1064.36 C119.05,1060.71 117.00,1060.63 117.00,1064.01 C117.00,1067.44 125.98,1072.91 139.16,1077.51 ZM 363.50 1068.57 C379.15,1071.24 399.20,1068.56 406.51,1062.81 L 409.29 1060.62 L 408.64 1044.56 C408.27,1035.73 407.51,1025.80 406.94,1022.50 C406.37,1019.20 405.50,996.25 405.01,971.50 C404.22,931.56 402.89,905.17 401.47,901.16 C401.21,900.42 401.46,896.85 402.04,893.24 C402.99,887.32 402.87,886.11 400.88,881.21 L 398.67 875.77 L 400.97 865.41 C402.76,857.34 403.13,853.44 402.65,847.78 C400.64,824.45 400.67,823.10 403.86,801.50 C408.98,766.82 409.46,760.41 409.42,727.50 C409.37,684.26 407.81,668.61 398.08,613.50 C392.81,583.64 392.63,583.02 389.20,582.93 C387.72,582.89 385.60,582.47 384.50,582.00 C382.89,581.31 383.22,581.13 386.19,581.07 C393.52,580.93 391.89,577.81 383.63,576.18 C372.55,573.99 366.88,568.09 362.83,554.50 C360.14,545.50 358.55,543.75 359.31,550.65 C359.93,556.21 358.86,558.04 354.20,559.46 C350.75,560.52 349.00,558.43 349.00,553.27 C349.00,549.12 348.83,548.82 346.75,549.33 C343.23,550.20 322.99,552.94 318.00,553.24 C313.68,553.49 313.51,553.62 313.69,556.50 C314.02,561.60 312.05,585.70 309.93,602.50 C307.22,623.91 305.56,633.14 301.89,647.27 C300.19,653.80 299.05,659.38 299.35,659.68 C300.01,660.35 303.99,653.99 304.00,652.25 C304.00,651.56 304.45,651.00 305.00,651.00 C306.31,651.00 306.27,651.42 304.59,655.44 C303.15,658.89 295.76,667.00 294.06,667.00 C292.61,667.00 292.28,667.87 288.98,680.43 L 285.89 692.15 L 290.54 713.83 C293.10,725.75 299.91,754.40 305.67,777.50 C315.50,816.94 316.17,820.26 316.62,832.00 C317.06,843.39 317.39,845.10 320.27,851.30 L 323.43 858.10 L 321.81 864.30 C320.22,870.41 320.23,870.59 322.63,876.31 L 325.07 882.12 L 323.96 903.43 C322.07,939.47 323.67,952.39 335.35,995.57 C340.39,1014.16 342.03,1022.20 344.56,1040.50 C345.48,1047.10 346.74,1053.01 347.36,1053.62 C349.06,1055.30 358.27,1058.13 359.16,1057.24 C359.99,1056.41 356.06,1025.65 353.45,1012.61 C352.56,1008.15 349.86,996.79 347.45,987.37 C342.48,967.93 339.49,951.50 338.02,935.50 C336.69,921.15 336.68,891.96 338.00,894.00 C338.53,894.83 338.98,902.06 338.98,910.08 C339.01,935.90 341.97,957.70 349.41,987.00 C354.82,1008.30 357.39,1021.69 359.95,1041.91 C361.04,1050.51 362.42,1057.64 363.07,1058.04 C365.41,1059.49 379.73,1060.08 386.43,1059.01 C394.31,1057.75 396.20,1058.33 389.85,1060.05 C381.92,1062.20 362.92,1061.42 353.50,1058.54 C347.11,1056.60 347.00,1056.61 347.00,1059.07 C347.00,1064.44 350.21,1066.29 363.50,1068.57 ZM 311.37 183.56 C323.35,185.78 328.94,184.03 332.54,176.91 C335.68,170.73 341.28,151.33 344.05,137.06 C346.08,126.58 346.16,124.90 345.00,117.06 C344.31,112.35 343.26,108.19 342.67,107.82 C342.08,107.44 340.36,107.38 338.85,107.68 C336.51,108.15 336.00,107.84 335.44,105.62 C334.37,101.34 335.45,100.14 340.70,99.81 C345.34,99.51 345.51,99.39 345.82,96.16 C345.95,94.79 346.13,93.93 345.78,93.55 C345.18,92.90 342.99,93.73 336.20,95.97 C330.94,97.71 330.90,97.71 331.20,95.66 C331.40,94.28 333.69,92.45 338.23,90.05 C343.40,87.33 344.97,85.99 344.98,84.31 C345.00,81.60 338.58,60.21 335.81,53.79 C332.90,47.01 331.88,46.42 326.76,48.52 C324.20,49.57 318.26,50.53 311.89,50.93 C298.50,51.76 291.40,54.92 282.19,64.13 C278.79,67.53 276.00,70.00 276.00,69.61 C276.00,68.24 279.26,62.47 281.29,60.25 C282.42,59.01 282.88,58.00 282.30,58.00 C280.05,58.00 273.18,66.98 268.16,76.50 C265.26,82.00 260.73,89.25 258.09,92.61 C253.55,98.40 253.24,99.20 252.13,107.85 C251.48,112.87 251.24,118.11 251.59,119.49 C251.93,120.87 251.82,122.00 251.32,122.00 C250.06,122.00 240.83,112.21 237.95,107.80 C233.89,101.60 228.03,100.21 223.99,104.51 C220.60,108.12 220.04,117.05 222.82,123.32 C225.66,129.75 233.23,137.54 238.64,139.61 C242.97,141.26 243.17,141.25 245.96,139.19 L 248.83 137.07 L 250.97 144.28 C254.69,156.78 256.19,159.96 259.89,163.21 C267.44,169.84 293.97,180.32 311.37,183.56 ZM 154.40 620.75 C154.76,618.41 155.98,612.73 157.12,608.13 C159.12,600.06 159.13,599.61 157.44,595.88 C155.96,592.59 155.79,590.14 156.29,579.75 C156.82,569.07 157.37,566.15 160.59,557.00 C163.92,547.57 164.37,545.07 165.02,532.50 C165.82,516.84 166.24,515.36 174.37,499.59 C178.26,492.06 180.00,487.53 180.00,484.95 C180.00,482.90 177.97,472.51 175.49,461.86 C173.01,451.21 170.49,440.36 169.89,437.75 C169.29,435.14 168.46,433.00 168.05,433.00 C167.64,433.00 165.13,437.61 162.47,443.25 L 157.64 453.50 L 156.84 480.50 C155.99,509.29 156.18,507.91 147.61,547.08 C141.95,572.91 140.13,600.12 143.31,611.03 C144.78,616.07 150.95,625.00 152.95,625.00 C153.39,625.00 154.04,623.09 154.40,620.75 ZM 385.47 410.35 L 384.82 417.21 L 389.16 416.48 C395.37,415.45 401.95,412.78 414.50,406.20 C425.35,400.51 425.50,400.38 425.40,396.96 C425.35,395.06 422.54,384.27 419.17,373.00 C412.17,349.59 406.65,327.16 405.03,315.50 C402.86,299.90 402.37,299.12 399.47,306.75 C398.47,309.36 395.91,315.31 393.78,319.96 L 389.90 328.43 L 392.05 336.40 C395.56,349.40 394.49,370.00 389.61,383.73 C388.14,387.86 386.81,396.45 385.47,410.35 ZM 311.37 550.52 C311.83,551.73 328.15,550.19 342.00,547.63 L 348.50 546.43 L 348.28 541.46 C348.16,538.73 347.79,534.07 347.44,531.10 L 346.82 525.70 L 335.66 526.44 C329.52,526.85 321.58,527.48 318.00,527.84 L 311.50 528.50 L 311.21 538.93 C311.06,544.67 311.13,549.88 311.37,550.52 ZM 295.00 549.39 C296.38,549.60 299.96,549.71 302.96,549.64 L 308.43 549.50 L 308.65 538.92 L 308.87 528.34 L 291.79 526.65 C282.39,525.72 274.53,525.14 274.31,525.36 C273.46,526.21 270.78,543.00 271.29,544.31 C271.76,545.53 277.32,546.72 295.00,549.39 ZM 331.53 828.50 C331.89,835.22 331.77,841.57 331.25,842.92 C330.58,844.69 330.15,841.40 329.70,830.92 C328.87,812.02 327.64,803.72 323.05,786.10 C320.96,778.07 317.37,764.30 315.07,755.50 C312.77,746.70 308.20,727.80 304.90,713.50 C301.60,699.20 298.02,684.05 296.95,679.83 C294.72,671.08 294.62,670.22 295.98,671.58 C296.52,672.12 300.58,687.39 305.02,705.53 C309.45,723.66 316.44,751.63 320.55,767.68 C328.58,799.01 330.51,809.71 331.53,828.50 ZM 379.00 572.41 C383.15,574.20 387.00,574.44 387.00,572.90 C387.00,572.30 383.06,565.51 378.25,557.83 L 369.50 543.85 L 366.13 544.38 C364.27,544.68 362.58,545.08 362.38,545.29 C361.73,545.93 365.13,556.31 367.52,561.00 C370.27,566.39 374.25,570.35 379.00,572.41 ZM 229.34 479.72 C224.39,487.22 222.00,490.09 222.00,488.53 C222.00,488.20 224.64,483.56 227.87,478.22 C239.30,459.29 247.17,441.47 256.01,414.50 C258.35,407.35 260.44,401.31 260.64,401.08 C263.70,397.57 256.00,423.86 248.43,442.72 C242.29,458.03 237.42,467.47 229.34,479.72 ZM 328.25 154.90 C322.89,154.75 315.46,155.00 311.75,155.45 C307.45,155.98 305.00,155.92 305.00,155.30 C305.00,154.76 308.71,152.56 313.25,150.41 C320.55,146.95 322.25,146.53 328.00,146.74 C334.95,147.00 338.00,148.97 338.00,153.20 C338.00,155.05 337.39,155.16 328.25,154.90 ZM 192.73 482.75 C188.19,489.46 187.00,490.85 187.00,489.47 C187.00,489.18 193.14,478.52 200.65,465.78 C208.16,453.05 218.13,435.18 222.81,426.07 C230.64,410.82 231.67,408.77 232.18,408.89 C232.28,408.92 232.36,409.03 232.47,409.13 C232.72,409.39 230.92,414.07 228.46,419.54 C221.00,436.10 204.27,465.69 192.73,482.75 ZM 260.67 556.33 C261.66,557.33 264.80,557.14 265.47,556.04 C266.04,555.13 271.00,528.07 271.00,525.90 C271.00,524.63 267.04,525.71 265.14,527.50 C264.40,528.21 262.94,533.44 261.91,539.14 C259.93,550.04 259.56,555.23 260.67,556.33 ZM 315.09 94.39 C314.64,94.94 314.39,95.34 314.02,95.55 C313.10,96.10 311.46,95.46 304.00,92.95 C294.24,89.66 285.55,89.15 280.86,91.57 C276.61,93.77 276.21,92.69 280.18,89.72 C287.35,84.37 294.22,83.93 306.60,88.04 C314.84,90.77 316.85,92.27 315.09,94.39 ZM 351.10 542.90 C352.18,555.27 352.55,557.00 354.11,557.00 C355.08,557.00 356.17,556.54 356.52,555.97 C356.87,555.41 356.64,548.99 356.01,541.72 C355.14,531.69 354.47,528.20 353.24,527.25 C351.05,525.56 348.65,525.65 349.32,527.40 C349.62,528.17 350.42,535.15 351.10,542.90 ZM 188.09 320.31 C188.93,330.05 188.95,334.25 188.15,335.62 C187.28,337.12 187.05,336.19 187.03,330.96 C186.94,311.79 180.18,279.76 174.02,269.32 C172.95,267.49 172.48,266.00 172.99,266.00 C174.58,266.00 179.13,274.75 181.62,282.59 C184.71,292.32 186.66,303.66 188.09,320.31 ZM 309.02 104.04 C310.37,106.57 308.81,108.07 306.55,106.41 C305.49,105.64 305.02,105.00 305.51,105.00 C306.00,105.00 305.89,104.49 305.26,103.86 C304.42,103.02 303.71,103.14 302.49,104.36 C300.16,106.70 295.94,106.49 295.29,104.00 C294.73,101.85 292.43,101.42 290.00,103.02 C288.67,103.89 288.67,104.11 290.00,104.98 C291.25,105.81 291.26,105.97 290.07,105.98 C288.17,106.01 282.00,103.75 282.00,103.04 C282.00,102.02 295.14,98.69 299.51,98.59 C303.79,98.50 307.06,100.38 309.02,104.04 ZM 322.30 543.65 C319.65,546.48 318.81,546.56 316.65,544.17 C314.73,542.05 314.45,535.95 316.20,534.20 C318.19,532.21 321.66,532.83 323.39,535.48 C324.86,537.72 325.48,537.90 329.76,537.35 C335.34,536.63 334.66,538.07 328.50,540.03 C326.30,540.72 323.51,542.35 322.30,543.65 ZM 240.56 129.47 C242.42,130.88 242.39,130.94 239.83,130.97 C236.84,131.00 231.44,126.95 230.49,123.96 C229.52,120.92 230.86,118.12 234.09,116.45 L 237.04 114.93 L 234.40 111.46 C231.57,107.75 228.13,106.93 226.02,109.47 C224.55,111.25 224.19,117.38 225.32,121.50 C225.94,123.76 225.86,124.22 224.99,123.37 C223.46,121.86 222.60,114.96 223.41,110.65 C223.92,107.92 224.73,106.94 227.20,106.08 C230.74,104.85 233.86,106.27 236.38,110.26 C239.32,114.93 239.26,116.65 236.12,117.95 C234.51,118.62 232.94,120.13 232.63,121.31 C231.93,123.99 234.45,128.00 236.83,128.00 C237.81,128.00 239.49,128.66 240.56,129.47 ZM 154.38 356.25 C157.27,364.91 159.30,372.00 158.89,372.00 C158.02,372.00 150.85,353.89 148.60,346.00 C146.60,339.00 143.00,321.43 143.00,318.69 C143.00,314.11 144.78,319.04 146.91,329.50 C148.14,335.55 151.50,347.59 154.38,356.25 ZM 168.35 905.98 C159.91,908.19 158.00,908.41 158.00,907.20 C158.00,906.76 162.75,904.95 168.55,903.17 C174.36,901.39 183.22,898.17 188.25,896.00 C193.28,893.83 197.53,892.20 197.70,892.37 C199.40,894.07 180.71,902.74 168.35,905.98 ZM 363.08 622.50 C355.34,625.98 346.07,630.46 342.50,632.46 C338.92,634.46 336.00,635.66 336.00,635.12 C336.00,632.21 371.26,615.00 377.23,615.00 C379.35,615.00 377.07,616.21 363.08,622.50 ZM 327.54 655.45 C318.41,658.05 313.03,658.80 316.00,657.06 C319.00,655.30 351.44,645.92 353.44,646.23 C355.60,646.57 343.07,651.03 327.54,655.45 ZM 357.69 537.28 C358.34,543.54 359.01,543.97 364.48,541.64 L 367.46 540.37 L 362.80 535.44 C360.24,532.73 357.91,530.75 357.62,531.04 C357.34,531.33 357.37,534.14 357.69,537.28 ZM 252.25 541.29 C257.11,542.23 258.87,541.97 259.35,540.25 C260.39,536.43 261.06,531.00 260.47,531.00 C259.49,531.00 250.00,539.23 250.00,540.09 C250.00,540.51 251.01,541.06 252.25,541.29 ZM 165.45 829.39 C157.96,841.33 156.10,843.89 156.04,842.37 C155.98,840.62 161.05,830.00 161.95,830.00 C162.40,830.00 164.95,826.63 167.63,822.51 C170.31,818.40 172.85,815.02 173.29,815.01 C174.30,815.00 173.16,817.07 165.45,829.39 ZM 150.00 678.87 C150.00,669.87 149.82,668.89 148.25,669.20 C146.77,669.49 146.50,670.69 146.52,677.02 C146.53,681.13 146.88,685.76 147.30,687.29 C148.76,692.66 150.00,688.80 150.00,678.87 ZM 202.98 530.46 C197.47,532.54 190.50,535.74 187.48,537.55 C181.01,541.45 180.10,540.40 186.27,536.16 C191.04,532.88 200.03,528.96 207.28,527.01 C215.55,524.78 213.39,526.52 202.98,530.46 ZM 330.43 166.02 C325.48,167.91 316.30,166.63 313.30,163.63 C313.16,163.50 317.54,163.41 323.02,163.44 C333.07,163.50 335.16,164.23 330.43,166.02 ZM 269.27 665.93 C263.90,666.58 258.49,667.33 257.25,667.58 C256.01,667.83 255.00,667.63 255.00,667.12 C255.00,666.14 263.59,664.43 273.96,663.35 C278.21,662.90 280.10,663.02 279.68,663.71 C279.33,664.27 274.65,665.27 269.27,665.93 ZM 271.36 132.66 C277.13,137.81 275.46,138.39 268.85,133.54 C264.46,130.32 259.00,124.23 259.00,122.55 C259.00,121.81 261.49,123.85 271.36,132.66 ZM 320.58 515.76 C319.83,516.51 297.00,516.61 297.00,515.87 C297.00,514.74 309.77,513.83 315.51,514.54 C318.58,514.93 320.86,515.47 320.58,515.76 ZM 337.32 132.38 C336.80,135.61 336.41,136.00 333.72,136.00 L 330.71 136.00 L 333.35 133.55 C336.64,130.50 336.68,128.38 333.51,122.85 C332.14,120.46 331.04,117.82 331.06,117.00 C331.08,116.18 332.63,118.49 334.50,122.13 C337.22,127.41 337.79,129.51 337.32,132.38 ZM 98.50 403.24 C104.71,406.55 106.24,406.67 105.82,403.79 C105.58,402.11 104.55,401.38 101.50,400.75 C94.20,399.24 92.96,400.28 98.50,403.24 ZM 327.82 133.25 C328.08,134.63 327.45,135.00 324.82,134.98 C323.00,134.98 320.83,134.53 320.00,133.98 C318.67,133.11 318.67,132.89 320.00,131.99 C322.35,130.41 327.43,131.22 327.82,133.25 ZM 318.43 542.67 C319.51,545.49 321.50,543.38 321.50,539.42 C321.50,536.60 321.08,535.50 320.00,535.50 C318.41,535.50 317.41,540.03 318.43,542.67 ZM 316.56 135.47 C318.46,136.90 318.45,136.94 316.32,136.97 C312.39,137.03 309.08,131.30 312.00,129.50 C312.57,129.15 313.00,129.99 313.00,131.44 C313.00,132.85 313.36,134.00 313.81,134.00 C314.25,134.00 315.49,134.66 316.56,135.47 ZM 241.80 124.75 C244.15,129.20 243.54,130.35 240.57,127.08 C239.62,126.03 239.00,124.12 239.20,122.83 C239.52,120.76 239.82,120.98 241.80,124.75 ZM 103.02 457.25 C103.01,458.21 103.45,459.00 104.00,459.00 C104.55,459.00 104.99,457.54 104.98,455.75 C104.97,453.28 104.74,452.86 104.00,454.00 C103.47,454.83 103.02,456.29 103.02,457.25 ZM 330.00 171.50 C330.00,172.88 329.55,174.00 329.00,174.00 C328.45,174.00 328.00,172.88 328.00,171.50 C328.00,170.12 328.45,169.00 329.00,169.00 C329.55,169.00 330.00,170.12 330.00,171.50 ZM 139.58 469.13 C140.21,470.15 140.45,470.15 140.79,469.14 C141.27,467.69 140.29,466.37 139.40,467.27 C139.07,467.60 139.15,468.44 139.58,469.13 Z" fill="rgba(0,0,0,1)"/>
<path d="M 342.67 96.83 C344.56,97.89 345.94,96.81 345.98,94.23 C346.00,94.70 345.90,95.34 345.82,96.16 C345.51,99.39 345.34,99.51 340.70,99.81 C335.45,100.14 334.37,101.34 335.44,105.62 C336.00,107.84 336.51,108.15 338.85,107.68 C339.57,107.54 340.35,107.47 341.02,107.49 C340.11,107.54 338.95,107.73 337.89,108.03 C336.12,108.54 333.71,108.71 332.53,108.42 C330.59,107.93 330.43,108.22 330.80,111.44 C331.08,113.80 330.81,115.00 330.00,115.00 C329.33,115.00 329.04,114.33 329.36,113.50 C329.68,112.68 329.57,112.00 329.13,112.00 C328.68,112.00 328.29,109.94 328.25,107.43 C328.19,103.88 328.50,102.98 329.59,103.40 C330.37,103.69 331.00,103.55 331.00,103.09 C331.00,102.22 331.45,102.01 338.50,99.55 C341.69,98.44 341.99,98.15 340.00,98.11 C338.62,98.09 336.38,98.71 335.00,99.50 C331.29,101.62 330.14,101.24 333.00,98.83 C335.50,96.73 335.50,96.73 333.17,97.46 C331.29,98.05 330.93,97.91 331.12,96.29 C330.98,97.69 331.54,97.51 336.20,95.97 C342.99,93.73 345.18,92.90 345.78,93.55 C345.85,93.62 345.89,93.70 345.92,93.80 C345.55,92.87 343.41,93.40 338.50,95.58 C335.65,96.85 335.63,96.89 338.18,96.37 C339.65,96.07 341.67,96.28 342.67,96.83 ZM 303.12 107.44 C299.01,109.56 293.22,109.40 289.00,107.04 C287.08,105.96 284.71,104.79 283.75,104.42 C282.79,104.06 282.00,103.48 282.00,103.12 C282.00,103.11 282.00,103.10 282.01,103.09 C282.27,103.85 288.22,106.00 290.07,105.98 C291.12,105.97 291.24,105.84 290.40,105.26 C290.77,105.45 291.22,105.65 291.75,105.84 C296.03,107.40 296.85,107.34 295.91,105.07 C297.32,106.48 300.56,106.30 302.49,104.36 C302.70,104.16 302.89,103.99 303.06,103.84 C302.80,104.14 302.53,104.53 302.23,105.00 C300.82,107.25 301.25,107.47 304.09,105.95 C305.02,105.45 305.61,104.72 305.55,104.19 C305.91,104.66 305.91,105.00 305.51,105.00 C305.02,105.00 305.49,105.64 306.55,106.41 C306.63,106.47 306.70,106.52 306.78,106.57 C305.92,106.27 304.86,106.54 303.12,107.44 ZM 308.33 98.42 C309.09,100.41 308.16,100.35 305.11,98.23 C303.61,97.19 300.74,96.57 297.40,96.57 C294.47,96.57 292.62,96.22 293.29,95.80 C294.97,94.73 302.36,94.81 305.30,95.92 C306.63,96.43 308.00,97.56 308.33,98.42 ZM 184.44 383.55 C186.97,369.69 187.89,331.47 185.57,313.58 C184.99,309.09 184.32,304.76 183.57,300.66 C185.62,311.28 186.99,322.40 187.03,330.96 C187.05,336.19 187.28,337.12 188.15,335.62 C188.54,334.95 188.74,333.60 188.74,331.26 C188.99,335.74 189.20,340.28 189.35,344.64 C189.26,343.94 189.16,343.38 189.04,343.00 C187.76,338.80 187.20,342.45 186.61,359.00 C186.24,369.43 185.43,378.29 184.44,383.55 ZM 192.73 482.75 C194.58,480.02 196.56,476.96 198.62,473.69 C193.08,482.71 192.91,483.56 192.21,491.66 C191.66,498.04 191.25,499.76 190.73,497.85 C190.33,496.39 190.30,493.02 190.65,490.35 L 191.30 485.50 L 189.18 488.00 C188.89,488.35 188.61,488.65 188.35,488.91 C189.23,487.84 190.62,485.87 192.73,482.75 ZM 337.02 906.76 C336.96,894.22 337.28,882.94 338.00,882.50 C338.65,882.10 339.00,889.27 339.00,903.27 C339.00,919.47 339.58,932.38 341.13,945.08 C339.66,933.50 339.00,922.23 338.98,910.08 C338.98,902.06 338.53,894.83 338.00,894.00 C337.39,893.05 337.06,898.85 337.02,906.76 ZM 334.00 569.83 C334.00,575.78 333.62,579.00 332.91,579.00 C332.15,579.00 332.04,576.33 332.53,570.25 C332.92,565.44 333.41,561.31 333.62,561.08 C333.83,560.85 334.00,564.79 334.00,569.83 ZM 130.00 976.00 C130.00,983.31 129.65,984.54 128.63,980.75 C127.66,977.12 127.91,969.00 129.00,969.00 C129.57,969.00 130.00,972.00 130.00,976.00 ZM 331.74 836.47 C332.02,845.19 331.98,852.00 331.63,852.00 C330.40,852.00 330.17,849.79 329.63,833.00 C329.33,823.57 328.93,816.80 328.12,810.44 C328.89,816.35 329.33,822.61 329.70,830.92 C330.15,841.40 330.58,844.69 331.25,842.92 C331.55,842.14 331.72,839.69 331.74,836.47 ZM 121.90 1059.30 C123.40,1059.61 123.97,1057.63 123.98,1052.81 C123.99,1050.23 124.52,1047.80 125.16,1047.40 C126.01,1046.88 126.14,1048.16 125.66,1052.26 C125.30,1055.32 124.76,1058.47 124.45,1059.26 C124.16,1060.02 125.01,1060.89 127.22,1062.05 C125.20,1061.09 123.36,1060.15 121.90,1059.30 ZM 206.64 864.00 C205.83,864.00 204.55,864.23 203.80,864.52 C203.05,864.81 201.56,864.37 200.47,863.55 C198.62,862.16 198.76,862.06 202.69,862.03 C205.00,862.01 207.16,862.45 207.50,863.00 C207.84,863.55 207.45,864.00 206.64,864.00 ZM 129.00 1005.50 C129.00,1010.08 128.85,1010.51 127.67,1009.33 C126.60,1008.27 126.90,1001.00 128.00,1001.00 C128.55,1001.00 129.00,1003.03 129.00,1005.50 ZM 158.52 846.09 C159.37,851.18 158.41,851.11 156.88,845.98 C156.48,844.66 156.25,843.69 156.22,842.76 C156.65,842.84 157.98,841.09 161.07,836.29 C157.99,841.61 157.99,842.96 158.52,846.09 ZM 332.06 106.58 C333.28,108.04 335.22,108.14 335.08,106.72 C335.03,106.33 335.00,105.32 335.00,104.50 C335.00,102.79 332.45,102.46 331.47,104.04 C331.12,104.62 331.38,105.76 332.06,106.58 ZM 269.95 663.81 C276.58,662.81 282.95,662.06 284.50,662.10 L 287.50 662.17 L 284.50 663.10 C283.29,663.47 280.05,664.13 276.46,664.76 C278.29,664.37 279.51,663.99 279.68,663.71 C280.10,663.02 278.21,662.90 273.96,663.35 C272.59,663.49 271.24,663.64 269.95,663.81 ZM 127.00 1037.44 C127.00,1039.40 126.85,1041.00 126.67,1041.00 C124.90,1041.00 124.34,1035.52 126.00,1034.50 C126.60,1034.13 127.00,1035.32 127.00,1037.44 ZM 128.00 1023.50 C128.00,1027.29 127.56,1027.90 126.61,1025.42 C125.67,1022.98 125.89,1020.00 127.00,1020.00 C127.55,1020.00 128.00,1021.58 128.00,1023.50 ZM 149.92 1069.25 C151.95,1069.41 154.15,1069.47 156.71,1069.47 C166.54,1069.48 168.67,1070.58 162.14,1071.39 C162.83,1070.85 160.03,1070.09 154.22,1069.70 C152.85,1069.61 151.39,1069.45 149.92,1069.25 ZM 162.51 711.97 L 163.70 708.89 C164.99,705.53 165.00,705.55 164.63,710.98 C164.44,713.72 164.66,716.85 165.12,718.31 C165.08,718.20 165.03,718.08 164.99,717.97 C164.30,716.30 163.94,714.73 164.19,714.48 C164.34,714.32 163.67,713.34 162.51,711.97 ZM 362.55 1060.36 C362.11,1060.57 362.00,1061.21 362.00,1062.49 C362.00,1063.99 361.57,1064.85 361.00,1064.50 C360.45,1064.16 360.00,1063.08 360.00,1062.10 C360.00,1060.93 358.78,1060.10 355.37,1059.06 C357.48,1059.58 359.93,1060.02 362.55,1060.36 ZM 131.00 956.30 C131.00,960.61 130.31,961.09 129.39,957.43 C129.03,955.97 129.24,954.36 129.87,953.73 C130.71,952.89 131.00,953.56 131.00,956.30 ZM 294.50 266.00 C294.16,266.55 292.78,267.00 291.44,267.00 C290.10,267.00 289.00,266.55 289.00,266.00 C289.00,265.45 290.38,265.00 292.06,265.00 C293.84,265.00 294.86,265.42 294.50,266.00 ZM 332.93 591.25 C333.00,595.18 332.35,596.08 331.34,593.44 C331.01,592.59 331.22,590.90 331.80,589.69 C332.76,587.72 332.87,587.88 332.93,591.25 ZM 304.50 266.00 C304.85,266.57 304.01,267.00 302.56,267.00 C301.15,267.00 300.00,266.55 300.00,266.00 C300.00,265.45 300.87,265.00 301.94,265.00 C303.01,265.00 304.16,265.45 304.50,266.00 ZM 106.00 385.00 C106.00,385.55 105.13,386.00 104.06,386.00 C102.99,386.00 101.84,385.55 101.50,385.00 C101.15,384.43 101.99,384.00 103.44,384.00 C104.85,384.00 106.00,384.45 106.00,385.00 ZM 331.97 601.75 C332.00,605.18 331.31,605.97 330.38,603.56 C330.08,602.77 330.31,601.31 330.89,600.31 C331.78,598.77 331.94,598.99 331.97,601.75 ZM 162.98 824.25 C162.99,825.76 162.55,827.00 162.00,827.00 C160.74,827.00 160.74,824.96 162.00,823.00 C162.76,821.83 162.97,822.11 162.98,824.25 ZM 325.98 607.25 C325.99,608.76 325.55,610.00 325.00,610.00 C323.74,610.00 323.74,607.96 325.00,606.00 C325.76,604.83 325.97,605.11 325.98,607.25 ZM 330.98 609.25 C330.99,610.76 330.55,612.00 330.00,612.00 C328.74,612.00 328.74,609.96 330.00,608.00 C330.76,606.83 330.97,607.11 330.98,609.25 ZM 169.00 649.30 C169.00,652.31 168.25,652.82 167.34,650.43 C167.01,649.57 167.24,648.36 167.87,647.73 C168.71,646.89 169.00,647.29 169.00,649.30 ZM 159.00 856.94 C159.00,858.07 158.55,859.00 158.00,859.00 C157.45,859.00 157.00,858.35 157.00,857.56 C157.00,856.77 157.45,855.84 158.00,855.50 C158.55,855.16 159.00,855.81 159.00,856.94 ZM 330.00 172.44 C330.00,174.33 329.55,176.16 329.00,176.50 C328.40,176.87 328.00,175.51 328.00,173.06 C328.00,172.73 328.01,172.40 328.03,172.09 C328.14,173.18 328.53,174.00 329.00,174.00 C329.50,174.00 329.91,173.08 329.99,171.90 C330.00,172.07 330.00,172.26 330.00,172.44 ZM 170.08 640.32 C169.50,642.78 169.06,644.07 168.86,643.71 C168.58,643.21 168.90,639.88 169.66,634.66 C169.24,637.80 169.11,639.73 169.30,640.24 C169.55,640.91 169.77,641.11 170.08,640.32 ZM 375.10 402.00 C374.80,399.55 374.73,397.91 374.95,397.68 C375.33,397.29 376.26,400.33 377.13,404.71 C376.63,402.51 376.14,400.88 375.85,400.55 C375.21,399.83 374.95,400.14 375.10,402.00 ZM 143.01 319.06 C142.69,316.62 142.59,315.01 142.81,314.79 C143.18,314.42 144.29,317.96 145.50,323.15 C144.05,317.26 143.00,315.18 143.00,318.69 C143.00,318.79 143.00,318.91 143.01,319.06 ZM 122.99 951.02 C122.52,960.49 122.28,972.14 122.02,987.50 C121.58,1015.00 121.09,1029.48 120.23,1038.78 C121.02,1029.68 121.53,1014.51 121.99,988.00 C122.25,972.40 122.51,960.59 122.99,951.02 ZM 307.69 102.06 C305.71,99.71 302.93,98.52 299.51,98.59 C297.85,98.63 294.94,99.13 291.96,99.79 C293.76,99.33 295.62,98.88 297.35,98.52 C301.13,97.72 305.59,99.30 307.69,102.06 ZM 155.00 696.91 C155.00,702.73 155.20,703.77 157.89,707.01 L 155.00 704.01 L 155.00 696.91 ZM 385.45 492.88 C385.17,490.68 384.79,485.84 384.51,481.00 C383.52,463.35 379.25,425.62 376.72,411.82 C376.80,412.26 376.89,412.72 376.98,413.20 C379.23,424.86 383.54,463.69 384.52,481.00 C384.79,485.84 385.16,490.50 385.45,492.88 ZM 255.02 667.03 C255.01,666.99 255.00,666.95 255.00,666.90 C255.00,666.41 255.16,666.00 255.36,666.00 C255.49,666.00 257.90,665.64 261.45,665.11 C257.73,665.81 255.28,666.51 255.02,667.03 ZM 174.19 266.89 C175.79,268.37 177.64,271.92 179.44,276.67 C177.65,272.38 175.61,268.56 174.19,266.89 ZM 373.63 1061.23 C369.42,1061.22 365.70,1061.01 364.21,1060.57 C367.26,1060.91 370.49,1061.14 373.63,1061.23 ZM 147.17 1071.00 C140.76,1069.85 133.69,1067.58 126.87,1064.38 C121.00,1061.62 118.39,1060.89 117.44,1062.12 C118.38,1060.89 121.00,1061.62 126.84,1064.36 C133.16,1067.33 140.64,1069.72 147.17,1071.00 ZM 229.84 416.38 C231.56,412.38 232.67,409.34 232.47,409.13 C232.43,409.10 232.40,409.06 232.36,409.03 C232.93,409.18 232.53,410.54 229.84,416.38 ZM 183.05 579.76 C181.88,580.88 179.85,588.48 177.43,600.34 C179.85,588.14 181.80,580.92 183.05,579.76 ZM 365.93 461.35 C367.85,466.58 369.98,471.40 372.52,476.28 C370.94,473.29 369.48,470.31 368.33,467.64 C367.64,466.04 366.81,463.84 365.93,461.35 ZM 330.07 811.74 C328.64,800.74 326.06,789.20 320.82,768.72 C326.12,789.45 328.68,800.65 330.07,811.74 ZM 169.89 819.16 C172.29,815.53 172.83,814.80 173.16,814.88 C173.23,814.90 173.29,814.95 173.35,815.02 C173.33,815.01 173.31,815.01 173.29,815.01 C172.98,815.02 171.61,816.71 169.89,819.16 ZM 268.88 665.98 C264.22,666.68 261.00,667.12 258.85,667.31 C261.07,666.98 264.96,666.46 268.88,665.98 ZM 172.48 617.73 C173.63,611.40 174.99,604.35 176.47,597.11 C176.73,595.81 176.99,594.53 177.23,593.30 C176.75,595.82 176.20,598.65 175.61,601.58 C174.41,607.54 173.37,612.96 172.48,617.73 ZM 307.36 106.89 C308.26,107.28 308.97,107.12 309.31,106.59 C309.22,107.57 308.57,107.89 307.47,106.98 C307.44,106.95 307.40,106.92 307.36,106.89 ZM 147.19 330.81 C148.56,336.68 150.69,344.45 152.73,351.10 C150.52,343.94 148.31,335.89 147.19,330.81 ZM 378.31 410.78 C379.18,414.80 379.79,415.65 380.33,413.08 C379.76,415.94 379.14,415.08 378.31,410.78 ZM 153.31 359.53 C151.43,354.63 149.56,349.38 148.60,346.00 C147.35,341.64 145.93,335.33 144.80,329.51 C145.99,335.43 147.53,342.24 148.60,346.00 C149.56,349.38 151.43,354.63 153.31,359.53 ZM 384.94 495.70 C385.66,496.22 385.92,495.81 385.71,494.44 C386.21,496.27 385.86,496.54 384.94,495.70 ZM 165.25 723.36 C164.67,725.38 163.52,727.03 162.43,726.61 C163.18,726.90 164.24,725.84 164.98,724.05 C165.08,723.81 165.17,723.58 165.25,723.36 ZM 185.76 300.54 C186.01,302.00 186.24,303.47 186.45,304.92 C186.70,306.73 186.94,308.79 187.18,311.02 C186.75,307.25 186.28,303.77 185.76,300.54 ZM 219.12 438.24 C215.97,444.19 212.44,450.52 208.65,457.04 C212.29,450.75 215.88,444.31 219.12,438.24 ZM 352.53 1058.25 C349.88,1057.51 348.49,1057.14 347.77,1057.16 C348.49,1057.07 349.87,1057.45 352.53,1058.25 ZM 200.65 465.78 C199.85,467.14 199.06,468.47 198.30,469.77 C199.30,468.06 200.33,466.29 201.40,464.49 C203.88,460.26 206.57,455.59 209.22,450.91 C206.29,456.10 203.31,461.27 200.65,465.78 ZM 159.18 834.40 C158.22,836.33 157.25,838.51 156.64,840.14 C156.94,839.23 157.40,838.15 158.04,836.73 C158.39,835.95 158.78,835.16 159.18,834.40 ZM 343.86 138.02 C343.92,137.71 343.98,137.41 344.04,137.10 C345.93,127.36 346.12,125.24 345.20,118.45 C346.14,125.14 345.95,127.23 344.05,137.06 C343.98,137.38 343.92,137.70 343.86,138.02 ZM 162.28 829.79 C163.00,829.04 164.35,827.29 165.82,825.21 C164.25,827.47 162.92,829.20 162.28,829.79 ZM 189.06 372.38 C188.82,375.82 188.78,378.54 188.96,379.32 C188.76,378.51 188.79,375.71 189.06,372.38 ZM 331.95 94.29 C332.93,93.12 334.89,91.82 338.23,90.05 C335.06,91.73 332.98,93.13 331.95,94.29 ZM 289.10 103.74 C289.03,104.01 289.14,104.29 289.42,104.58 C289.00,104.25 288.90,104.01 289.10,103.74 ZM 295.10 103.46 C294.70,102.84 294.29,102.44 293.79,102.23 C294.36,102.44 294.81,102.86 295.10,103.46 ZM 393.30 1058.88 C392.77,1059.17 391.64,1059.57 389.85,1060.06 C389.62,1060.13 389.35,1060.19 389.06,1060.25 C389.33,1060.18 389.60,1060.12 389.85,1060.05 C391.64,1059.56 392.77,1059.17 393.30,1058.88 ZM 292.96 102.06 C292.46,102.05 291.88,102.16 291.18,102.39 C291.81,102.14 292.42,102.03 292.96,102.06 ZM 189.07 379.54 C189.78,379.96 192.28,377.76 195.11,374.59 C192.28,377.77 189.77,379.98 189.07,379.54 C189.07,379.54 189.07,379.54 189.07,379.54 ZM 174.43 270.04 C174.30,269.79 174.16,269.55 174.02,269.32 C174.01,269.29 173.99,269.26 173.97,269.23 C173.38,268.22 173.00,267.37 172.87,266.82 C173.04,267.43 173.44,268.33 174.02,269.32 C174.16,269.55 174.30,269.79 174.43,270.04 ZM 343.17 108.72 C343.01,108.33 342.85,108.03 342.70,107.84 C342.83,107.95 342.99,108.26 343.17,108.72 ZM 165.27 718.69 C165.38,718.93 165.46,719.19 165.52,719.46 C165.45,719.22 165.37,718.96 165.27,718.69 ZM 179.00 583.28 C178.99,583.09 178.90,582.98 178.71,582.95 C178.90,582.97 179.00,583.08 179.00,583.27 C179.00,583.27 179.00,583.28 179.00,583.28 ZM 376.49 410.61 C376.38,410.01 376.27,409.42 376.16,408.84 C376.26,409.40 376.37,409.99 376.49,410.61 Z" fill="rgba(37,44,47,1)"/>
<path d="M 311.37 183.56 C293.97,180.32 267.44,169.84 259.89,163.21 C256.19,159.96 254.69,156.78 250.97,144.28 L 248.83 137.07 L 245.96 139.19 C243.17,141.25 242.97,141.26 238.64,139.61 C233.23,137.54 225.66,129.75 222.82,123.32 C220.04,117.05 220.60,108.12 223.99,104.51 C226.72,101.61 230.29,101.30 233.57,103.32 C231.38,102.63 231.95,104.35 235.05,107.56 C236.93,109.50 238.62,110.63 238.81,110.08 C238.91,109.76 238.79,109.23 238.51,108.61 C241.86,113.29 250.13,122.00 251.32,122.00 C251.82,122.00 251.93,120.87 251.59,119.49 C251.24,118.11 251.48,112.87 252.13,107.85 C253.24,99.20 253.55,98.40 258.09,92.61 C260.73,89.25 265.26,82.00 268.16,76.50 C273.18,66.98 280.05,58.00 282.30,58.00 C282.88,58.00 282.42,59.01 281.29,60.25 C279.26,62.47 276.00,68.24 276.00,69.61 C276.00,70.00 278.79,67.53 282.19,64.13 C291.40,54.92 298.50,51.76 311.89,50.93 C318.26,50.53 324.20,49.57 326.76,48.52 C331.88,46.42 332.90,47.01 335.81,53.79 C338.58,60.21 345.00,81.60 344.98,84.31 C344.97,85.99 343.40,87.33 338.23,90.05 C333.32,92.64 331.41,94.23 331.17,95.90 C330.88,97.88 331.15,98.09 333.17,97.46 C335.50,96.73 335.50,96.73 333.00,98.83 C330.14,101.24 331.29,101.62 335.00,99.50 C336.38,98.71 338.62,98.09 340.00,98.11 C341.99,98.15 341.69,98.44 338.50,99.55 C331.45,102.01 331.00,102.22 331.00,103.09 C331.00,103.55 330.37,103.69 329.59,103.40 C328.50,102.98 328.19,103.88 328.25,107.43 C328.29,109.94 328.68,112.00 329.13,112.00 C329.57,112.00 329.68,112.68 329.36,113.50 C329.04,114.33 329.33,115.00 330.00,115.00 C330.81,115.00 331.08,113.80 330.80,111.44 C330.43,108.22 330.59,107.93 332.53,108.42 C333.71,108.71 336.12,108.54 337.89,108.03 C339.66,107.52 341.70,107.33 342.42,107.61 C343.21,107.91 344.22,111.59 344.99,116.91 C346.14,124.98 346.06,126.66 344.04,137.10 C341.27,151.34 335.68,170.73 332.54,176.91 C328.94,184.03 323.35,185.78 311.37,183.56 ZM 328.25 154.90 C337.39,155.16 338.00,155.05 338.00,153.20 C338.00,148.97 334.95,147.00 328.00,146.74 C322.25,146.53 320.55,146.95 313.25,150.41 C308.71,152.56 305.00,154.76 305.00,155.30 C305.00,155.92 307.45,155.98 311.75,155.45 C315.46,155.00 322.89,154.75 328.25,154.90 ZM 303.12 107.44 C305.36,106.28 306.49,106.16 307.47,106.98 C309.57,108.71 310.01,105.97 308.16,102.76 C306.32,99.57 301.43,97.65 297.35,98.52 C290.58,99.95 282.00,102.53 282.00,103.12 C282.00,103.48 282.79,104.06 283.75,104.42 C284.71,104.79 287.08,105.96 289.00,107.04 C293.22,109.40 299.01,109.56 303.12,107.44 ZM 315.09 94.39 C316.85,92.27 314.84,90.77 306.60,88.04 C294.22,83.93 287.35,84.37 280.18,89.72 C276.21,92.69 276.61,93.77 280.86,91.57 C285.55,89.15 294.24,89.66 304.00,92.95 C311.46,95.46 313.10,96.10 314.02,95.55 C314.39,95.34 314.64,94.94 315.09,94.39 ZM 240.56 129.47 C239.49,128.66 237.81,128.00 236.83,128.00 C234.45,128.00 231.93,123.99 232.63,121.31 C232.94,120.13 234.51,118.62 236.12,117.95 C239.26,116.65 239.32,114.93 236.38,110.26 C233.86,106.27 230.74,104.85 227.20,106.08 C224.73,106.94 223.92,107.92 223.41,110.65 C222.60,114.96 223.46,121.86 224.99,123.37 C225.86,124.22 225.94,123.76 225.32,121.50 C224.19,117.38 224.55,111.25 226.02,109.47 C228.13,106.93 231.57,107.75 234.40,111.46 L 237.04 114.93 L 234.09 116.45 C230.86,118.12 229.52,120.92 230.49,123.96 C231.44,126.95 236.84,131.00 239.83,130.97 C242.39,130.94 242.42,130.88 240.56,129.47 ZM 210.00 863.50 C208.08,865.82 198.24,864.84 189.24,861.44 C182.35,858.83 185.27,858.11 194.73,860.09 C199.55,861.10 205.24,861.94 207.37,861.96 C210.70,861.99 211.07,862.21 210.00,863.50 ZM 330.43 166.02 C335.16,164.23 333.07,163.50 323.02,163.44 C317.54,163.41 313.16,163.50 313.30,163.63 C316.30,166.63 325.48,167.91 330.43,166.02 ZM 271.36 132.66 C261.49,123.85 259.00,121.81 259.00,122.55 C259.00,124.23 264.46,130.32 268.85,133.54 C275.46,138.39 277.13,137.81 271.36,132.66 ZM 337.32 132.38 C337.79,129.51 337.22,127.41 334.50,122.13 C332.63,118.49 331.08,116.18 331.06,117.00 C331.04,117.82 332.14,120.46 333.51,122.85 C336.68,128.38 336.64,130.50 333.35,133.55 L 330.71 136.00 L 333.72 136.00 C336.41,136.00 336.80,135.61 337.32,132.38 ZM 308.33 98.42 C308.00,97.56 306.63,96.43 305.30,95.92 C302.36,94.81 294.97,94.73 293.29,95.80 C292.62,96.22 294.47,96.57 297.40,96.57 C300.74,96.57 303.61,97.19 305.11,98.23 C308.16,100.35 309.09,100.41 308.33,98.42 ZM 327.82 133.25 C327.43,131.22 322.35,130.41 320.00,131.99 C318.67,132.89 318.67,133.11 320.00,133.98 C320.83,134.53 323.00,134.98 324.82,134.98 C327.45,135.00 328.08,134.63 327.82,133.25 ZM 342.67 96.83 C341.67,96.28 339.65,96.07 338.18,96.37 C335.63,96.89 335.65,96.85 338.50,95.58 C343.97,93.15 346.00,92.77 345.98,94.18 C345.95,96.79 344.57,97.90 342.67,96.83 ZM 316.56 135.47 C315.49,134.66 314.25,134.00 313.81,134.00 C313.36,134.00 313.00,132.85 313.00,131.44 C313.00,129.99 312.57,129.15 312.00,129.50 C309.08,131.30 312.39,137.03 316.32,136.97 C318.45,136.94 318.46,136.90 316.56,135.47 ZM 403.00 343.83 C403.00,348.33 402.63,352.00 402.18,352.00 C401.26,352.00 401.47,337.20 402.40,336.26 C402.73,335.94 403.00,339.34 403.00,343.83 ZM 206.64 864.00 C207.45,864.00 207.84,863.55 207.50,863.00 C207.16,862.45 205.00,862.01 202.69,862.03 C198.76,862.06 198.62,862.16 200.47,863.55 C201.56,864.37 203.05,864.81 203.80,864.52 C204.55,864.23 205.83,864.00 206.64,864.00 ZM 187.14 489.46 C187.31,488.62 188.46,486.36 190.51,482.99 C192.44,479.81 193.77,476.57 193.47,475.79 C193.17,475.01 193.37,473.27 193.90,471.93 C194.60,470.19 194.89,470.00 194.94,471.25 C194.97,472.21 195.34,473.00 195.75,472.99 C196.12,472.98 198.27,469.69 201.30,464.66 C194.03,477.02 188.01,487.58 187.14,489.46 ZM 241.80 124.75 C239.82,120.98 239.52,120.76 239.20,122.83 C239.00,124.12 239.62,126.03 240.57,127.08 C243.54,130.35 244.15,129.20 241.80,124.75 ZM 330.00 172.44 C330.00,170.55 329.55,169.00 329.00,169.00 C328.45,169.00 328.00,170.83 328.00,173.06 C328.00,175.51 328.40,176.87 329.00,176.50 C329.55,176.16 330.00,174.33 330.00,172.44 ZM 202.00 317.30 C202.00,320.43 201.83,323.00 201.63,323.00 C200.75,323.00 200.25,313.41 201.08,312.55 C201.64,311.97 202.00,313.81 202.00,317.30 ZM 383.32 323.55 C382.74,321.81 382.12,319.97 381.44,318.00 C376.87,304.82 373.42,291.25 374.38,290.29 C374.70,289.97 375.14,290.34 375.37,291.11 C375.61,291.87 377.30,296.77 379.13,302.00 L 382.01 310.19 L 379.60 303.50 C372.74,284.44 373.96,295.92 381.00,316.59 C381.85,319.10 382.62,321.41 383.32,323.55 ZM 329.00 575.80 C329.00,580.77 328.42,581.19 327.48,576.90 C327.07,575.06 327.25,573.35 327.90,572.70 C328.70,571.90 329.00,572.74 329.00,575.80 ZM 103.02 457.25 C103.02,456.29 103.47,454.83 104.00,454.00 C104.74,452.86 104.97,453.28 104.98,455.75 C104.99,457.54 104.55,459.00 104.00,459.00 C103.45,459.00 103.01,458.21 103.02,457.25 ZM 254.34 508.94 C255.09,509.69 254.09,509.97 250.95,509.91 L 246.50 509.82 L 249.89 508.85 C252.19,508.18 253.61,508.21 254.34,508.94 ZM 296.00 516.00 C296.00,516.55 294.54,516.97 292.75,516.93 C290.03,516.87 289.82,516.72 291.50,516.00 C294.26,514.81 296.00,514.81 296.00,516.00 ZM 139.58 469.13 C139.15,468.44 139.07,467.60 139.40,467.27 C140.29,466.37 141.27,467.69 140.79,469.14 C140.45,470.15 140.21,470.15 139.58,469.13 ZM 302.23 105.00 C302.41,104.71 302.59,104.46 302.75,104.23 C302.71,104.32 302.67,104.41 302.64,104.50 C302.00,106.18 302.16,106.26 304.41,105.40 C305.27,105.07 305.73,104.40 305.44,103.91 C305.45,103.92 305.46,103.94 305.47,103.95 C305.79,104.47 305.17,105.37 304.09,105.95 C301.25,107.47 300.82,107.25 302.23,105.00 ZM 332.24 106.77 C333.52,107.49 335.00,106.67 335.00,105.00 C335.00,104.54 334.93,104.12 334.82,103.78 C334.93,103.98 335.00,104.22 335.00,104.50 C335.00,105.32 335.03,106.33 335.08,106.72 C335.21,108.07 333.45,108.05 332.24,106.77 ZM 333.74 103.06 C332.78,103.37 331.67,104.73 331.52,105.66 C331.27,105.04 331.24,104.42 331.47,104.04 C331.99,103.20 332.96,102.90 333.74,103.06 ZM 382.47 311.48 L 383.16 307.00 C383.49,304.83 383.80,299.29 383.90,293.95 C383.80,299.29 383.50,304.83 383.17,307.00 L 382.48 311.50 L 382.47 311.48 ZM 388.76 357.35 C388.99,352.01 388.91,347.63 388.29,343.06 C388.92,347.66 388.99,351.96 388.76,357.35 ZM 189.18 488.00 C188.15,489.22 187.52,489.80 187.26,489.82 C187.61,489.67 188.34,488.99 189.18,488.00 ZM 224.00 423.81 C228.16,415.64 231.83,409.02 232.22,409.01 C231.83,409.02 228.17,415.62 224.00,423.81 ZM 304.46 103.07 C304.73,103.12 304.97,103.29 305.22,103.59 C304.98,103.31 304.73,103.14 304.46,103.07 Z" fill="rgba(63,67,60,1)"/>
<path d="M 386.26 822.68 C378.26,828.22 377.65,828.54 378.20,826.89 C378.72,825.33 390.81,817.47 391.55,818.22 C391.81,818.48 389.43,820.49 386.26,822.68 ZM 235.05 107.56 C231.72,104.11 231.31,102.38 234.11,103.52 C235.98,104.28 239.23,108.81 238.81,110.08 C238.62,110.63 236.93,109.50 235.05,107.56 ZM 197.81 860.69 C196.77,860.50 195.73,860.30 194.73,860.09 C185.93,858.25 182.79,858.75 187.95,860.92 C183.18,859.22 180.23,857.54 182.88,857.16 C184.19,856.98 187.11,857.51 189.38,858.34 C191.79,859.22 194.81,860.05 197.81,860.69 ZM 335.00 864.00 C335.00,866.20 334.55,868.00 334.00,868.00 C333.45,868.00 333.00,866.20 333.00,864.00 C333.00,861.80 333.45,860.00 334.00,860.00 C334.55,860.00 335.00,861.80 335.00,864.00 ZM 141.93 301.75 C141.97,302.99 141.55,304.00 141.00,304.00 C140.45,304.00 140.03,302.09 140.07,299.75 C140.12,296.46 140.33,295.95 141.00,297.50 C141.47,298.60 141.89,300.51 141.93,301.75 ZM 372.98 379.25 C372.99,380.21 372.55,381.00 372.00,381.00 C371.45,381.00 371.01,379.54 371.02,377.75 C371.03,375.28 371.26,374.86 372.00,376.00 C372.53,376.83 372.98,378.29 372.98,379.25 ZM 201.97 314.75 C201.97,315.07 201.97,315.38 201.97,315.68 C201.87,313.26 201.55,312.07 201.08,312.55 C200.25,313.41 200.75,322.93 201.62,323.00 C201.62,323.00 201.62,323.00 201.62,323.00 C200.59,323.00 199.95,309.91 200.89,308.29 C201.68,306.94 201.95,308.53 201.97,314.75 ZM 243.00 641.00 C243.00,642.26 240.96,642.26 239.00,641.00 C237.83,640.24 238.11,640.03 240.25,640.02 C241.76,640.01 243.00,640.45 243.00,641.00 ZM 172.93 345.25 C172.97,345.66 172.55,346.00 172.00,346.00 C171.45,346.00 171.03,344.76 171.07,343.25 C171.13,340.81 171.24,340.73 172.00,342.50 C172.47,343.60 172.89,344.84 172.93,345.25 ZM 209.80 863.71 C208.98,864.43 207.20,864.96 205.63,864.92 C204.68,864.90 203.60,864.79 202.43,864.63 C205.94,864.96 208.68,864.68 209.80,863.71 ZM 209.71 862.08 C210.81,862.22 210.75,862.59 210.00,863.50 C210.73,862.62 210.79,862.24 209.71,862.08 Z" fill="rgba(87,96,100,1)"/>
<path d="M 139.16 1077.51 C125.98,1072.91 117.00,1067.44 117.00,1064.01 C117.00,1060.63 119.05,1060.71 126.87,1064.38 C137.98,1069.59 149.76,1072.36 158.27,1071.75 C169.16,1070.97 168.13,1069.48 156.71,1069.47 C146.03,1069.47 141.56,1068.44 129.70,1063.23 C125.66,1061.45 124.07,1060.25 124.45,1059.26 C124.76,1058.47 125.30,1055.32 125.66,1052.26 C126.14,1048.16 126.01,1046.88 125.16,1047.40 C124.52,1047.80 123.99,1050.23 123.98,1052.81 C123.96,1059.21 122.97,1060.61 120.10,1058.28 L 117.87 1056.47 L 119.58 1044.49 C120.86,1035.47 121.47,1021.35 122.02,987.50 C122.96,930.17 123.82,924.50 136.61,891.26 C139.63,883.43 142.33,874.65 142.61,871.76 C143.43,863.41 143.74,862.59 147.98,857.26 C152.48,851.62 152.75,849.89 150.28,842.92 L 148.56 838.07 L 151.80 831.74 L 155.05 825.40 L 154.36 775.06 L 153.67 724.72 L 157.41 725.42 C159.46,725.80 161.72,726.34 162.43,726.61 C164.40,727.37 166.52,721.44 165.26,718.68 C164.71,717.46 164.42,713.99 164.63,710.98 C165.00,705.55 164.99,705.53 163.70,708.89 L 162.40 712.28 L 158.70 707.96 C155.21,703.88 155.00,703.25 155.00,696.73 L 155.00 689.82 L 160.25 695.17 C165.93,700.95 169.14,701.71 172.45,698.06 C173.97,696.37 173.98,695.72 172.49,689.37 C169.52,676.64 168.00,667.53 168.00,662.47 C168.00,659.71 167.39,656.56 166.64,655.47 C165.89,654.39 164.95,651.27 164.54,648.54 C164.14,645.81 162.45,640.88 160.79,637.59 C157.83,631.71 157.79,631.48 158.93,624.55 C159.57,620.67 161.72,611.33 163.70,603.79 L 167.31 590.08 L 173.15 585.97 C176.97,583.30 179.00,582.37 179.00,583.30 C179.00,584.08 177.86,590.30 176.47,597.11 C171.64,620.75 168.11,642.37 168.86,643.71 C169.29,644.48 170.82,637.74 172.37,628.28 C176.92,600.55 181.29,580.85 183.16,579.67 C184.35,578.92 186.85,579.13 192.16,580.44 C214.54,585.96 235.65,582.02 245.87,570.41 C251.99,563.46 250.88,563.06 244.25,569.82 C235.87,578.36 229.17,580.51 211.00,580.47 C197.94,580.44 189.00,579.02 189.00,576.98 C189.00,575.19 193.95,574.81 203.70,575.87 C227.80,578.48 243.60,570.75 250.59,552.96 C252.09,549.13 253.02,545.69 252.66,545.33 C252.30,544.96 251.89,544.85 251.75,545.08 C251.61,545.31 249.78,548.96 247.69,553.18 C245.37,557.86 242.15,562.45 239.46,564.93 C234.75,569.27 232.56,570.10 233.35,567.25 C234.58,562.77 235.00,558.00 234.18,558.00 C233.67,558.00 232.72,560.74 232.06,564.08 C231.00,569.50 230.52,570.30 227.67,571.50 C221.00,574.28 199.00,574.61 199.00,571.93 C199.00,571.42 199.61,571.00 200.35,571.00 C201.09,571.00 207.05,568.31 213.60,565.02 C220.14,561.72 226.50,559.02 227.72,559.02 C229.28,559.00 229.77,558.55 229.36,557.50 C228.95,556.42 229.67,555.82 231.93,555.36 C233.66,555.02 234.91,554.23 234.71,553.62 C234.17,552.01 247.00,541.79 248.73,542.45 C249.53,542.76 251.88,543.28 253.96,543.61 L 257.75 544.22 L 257.26 550.39 C256.71,557.24 257.34,558.31 262.65,559.44 C265.24,560.00 266.09,559.71 267.40,557.84 C268.28,556.58 269.01,554.42 269.02,553.03 C269.05,547.95 269.68,547.81 282.42,549.99 C288.90,551.09 297.50,552.00 301.53,552.00 C308.24,552.00 308.93,552.19 309.66,554.25 C311.70,560.04 309.18,590.31 303.43,629.15 C300.22,650.85 296.66,661.55 292.29,662.64 C288.89,663.50 287.79,666.24 281.47,689.56 C274.26,716.20 269.74,731.08 260.53,758.50 C256.47,770.60 250.62,790.85 247.53,803.50 C241.12,829.70 237.97,840.00 233.79,848.35 C232.18,851.57 229.98,858.26 228.90,863.20 C226.77,872.99 224.79,877.51 219.27,885.18 C216.04,889.69 215.61,891.06 214.95,898.94 C214.38,905.91 213.59,908.89 211.12,913.60 C209.38,916.88 207.99,921.05 207.98,923.00 C207.91,934.40 200.37,973.48 195.10,989.74 C193.54,994.56 191.81,1000.75 191.25,1003.50 C190.69,1006.25 189.08,1012.83 187.68,1018.12 C186.28,1023.41 184.42,1034.21 183.55,1042.12 C179.93,1075.04 180.55,1073.21 171.68,1077.06 C167.77,1078.76 164.05,1079.41 156.50,1079.69 C147.74,1080.03 145.59,1079.76 139.16,1077.51 ZM 127.00 1037.44 C127.00,1035.32 126.60,1034.13 126.00,1034.50 C124.34,1035.52 124.90,1041.00 126.67,1041.00 C126.85,1041.00 127.00,1039.40 127.00,1037.44 ZM 128.00 1023.50 C128.00,1021.58 127.55,1020.00 127.00,1020.00 C125.89,1020.00 125.67,1022.98 126.61,1025.42 C127.56,1027.90 128.00,1027.29 128.00,1023.50 ZM 129.00 1005.50 C129.00,1003.03 128.55,1001.00 128.00,1001.00 C126.90,1001.00 126.60,1008.27 127.67,1009.33 C128.85,1010.51 129.00,1010.08 129.00,1005.50 ZM 130.00 976.00 C130.00,972.00 129.57,969.00 129.00,969.00 C127.91,969.00 127.66,977.12 128.63,980.75 C129.65,984.54 130.00,983.31 130.00,976.00 ZM 131.00 956.30 C131.00,953.56 130.71,952.89 129.87,953.73 C129.24,954.36 129.03,955.97 129.39,957.43 C130.31,961.09 131.00,960.61 131.00,956.30 ZM 168.35 905.98 C180.71,902.74 199.40,894.07 197.70,892.37 C197.53,892.20 193.28,893.83 188.25,896.00 C183.22,898.17 174.36,901.39 168.55,903.17 C162.75,904.95 158.00,906.76 158.00,907.20 C158.00,908.41 159.91,908.19 168.35,905.98 ZM 210.00 863.50 C211.07,862.21 210.73,862.00 207.67,862.00 C203.20,862.00 194.78,860.31 189.38,858.34 C187.11,857.51 184.19,856.98 182.88,857.16 C177.24,857.96 197.01,864.70 205.63,864.92 C207.35,864.96 209.32,864.33 210.00,863.50 ZM 159.00 856.94 C159.00,855.81 158.55,855.16 158.00,855.50 C157.45,855.84 157.00,856.77 157.00,857.56 C157.00,858.35 157.45,859.00 158.00,859.00 C158.55,859.00 159.00,858.07 159.00,856.94 ZM 158.52 846.09 C157.75,841.54 158.10,840.75 167.40,826.08 C171.03,820.36 173.78,815.44 173.50,815.17 C172.88,814.55 173.19,814.17 168.02,822.00 C165.66,825.58 162.98,829.17 162.06,830.00 C161.15,830.83 159.34,833.86 158.04,836.73 C155.92,841.41 155.80,842.39 156.88,845.98 C158.41,851.11 159.37,851.18 158.52,846.09 ZM 162.98 824.25 C162.97,822.11 162.76,821.83 162.00,823.00 C160.74,824.96 160.74,827.00 162.00,827.00 C162.55,827.00 162.99,825.76 162.98,824.25 ZM 272.50 665.42 C277.45,664.65 282.85,663.60 284.50,663.10 L 287.50 662.17 L 284.50 662.10 C282.85,662.06 275.70,662.92 268.61,664.01 C261.52,665.10 255.56,666.00 255.36,666.00 C255.16,666.00 255.00,666.41 255.00,666.90 C255.00,667.89 258.63,667.58 272.50,665.42 ZM 169.00 649.30 C169.00,647.29 168.71,646.89 167.87,647.73 C167.24,648.36 167.01,649.57 167.34,650.43 C168.25,652.82 169.00,652.31 169.00,649.30 ZM 243.00 641.00 C243.00,640.45 241.76,640.01 240.25,640.02 C238.11,640.03 237.83,640.24 239.00,641.00 C240.96,642.26 243.00,642.26 243.00,641.00 ZM 363.50 1068.57 C350.21,1066.29 347.00,1064.44 347.00,1059.07 C347.00,1056.58 346.62,1056.61 354.02,1058.66 C358.46,1059.90 360.00,1060.79 360.00,1062.10 C360.00,1063.08 360.45,1064.16 361.00,1064.50 C361.57,1064.85 362.00,1063.99 362.00,1062.49 C362.00,1060.26 362.32,1059.97 364.14,1060.55 C367.69,1061.67 385.19,1061.34 389.85,1060.06 C396.19,1058.32 394.32,1057.75 386.43,1059.01 C379.73,1060.08 365.41,1059.49 363.07,1058.04 C362.42,1057.64 361.04,1050.51 359.95,1041.91 C357.39,1021.69 354.82,1008.30 349.41,987.00 C341.40,955.48 339.00,936.15 339.00,903.27 C339.00,889.27 338.65,882.10 338.00,882.50 C336.68,883.32 336.69,921.10 338.02,935.50 C339.49,951.50 342.48,967.93 347.45,987.37 C349.86,996.79 352.56,1008.15 353.45,1012.61 C356.06,1025.65 359.99,1056.41 359.16,1057.24 C358.27,1058.13 349.06,1055.30 347.36,1053.62 C346.74,1053.01 345.48,1047.10 344.56,1040.50 C342.03,1022.20 340.39,1014.16 335.35,995.57 C323.67,952.39 322.07,939.47 323.96,903.43 L 325.07 882.12 L 322.63 876.31 C320.23,870.59 320.22,870.41 321.81,864.30 L 323.43 858.10 L 320.27 851.30 C317.39,845.10 317.06,843.39 316.62,832.00 C316.17,820.26 315.50,816.94 305.67,777.50 C299.91,754.40 293.10,725.75 290.54,713.83 L 285.89 692.15 L 288.98 680.43 C292.28,667.87 292.61,667.00 294.06,667.00 C295.76,667.00 303.15,658.89 304.59,655.44 C306.27,651.42 306.31,651.00 305.00,651.00 C304.45,651.00 304.00,651.56 304.00,652.25 C303.99,653.99 300.01,660.35 299.35,659.68 C299.05,659.38 300.19,653.80 301.89,647.27 C305.56,633.14 307.22,623.91 309.93,602.50 C312.05,585.70 314.02,561.60 313.69,556.50 C313.51,553.62 313.68,553.49 318.00,553.24 C322.99,552.94 343.23,550.20 346.75,549.33 C348.83,548.82 349.00,549.12 349.00,553.27 C349.00,558.43 350.75,560.52 354.20,559.46 C358.86,558.04 359.93,556.21 359.31,550.65 C358.55,543.75 360.14,545.50 362.83,554.50 C366.88,568.09 372.55,573.99 383.63,576.18 C391.89,577.81 393.52,580.93 386.19,581.07 C383.22,581.13 382.89,581.31 384.50,582.00 C385.60,582.47 387.72,582.89 389.20,582.93 C392.63,583.02 392.81,583.64 398.08,613.50 C407.81,668.61 409.37,684.26 409.42,727.50 C409.46,760.41 408.98,766.82 403.86,801.50 C400.67,823.10 400.64,824.45 402.65,847.78 C403.13,853.44 402.76,857.34 400.97,865.41 L 398.67 875.77 L 400.88 881.21 C402.87,886.11 402.99,887.32 402.04,893.24 C401.46,896.85 401.21,900.42 401.47,901.16 C402.89,905.17 404.22,931.56 405.01,971.50 C405.50,996.25 406.37,1019.20 406.94,1022.50 C407.51,1025.80 408.27,1035.73 408.64,1044.56 L 409.29 1060.62 L 406.51 1062.81 C399.20,1068.56 379.15,1071.24 363.50,1068.57 ZM 335.00 864.00 C335.00,861.80 334.55,860.00 334.00,860.00 C333.45,860.00 333.00,861.80 333.00,864.00 C333.00,866.20 333.45,868.00 334.00,868.00 C334.55,868.00 335.00,866.20 335.00,864.00 ZM 331.66 834.25 C330.78,810.59 329.36,802.02 320.55,767.66 C316.44,751.62 309.45,723.66 305.02,705.53 C300.58,687.39 296.52,672.12 295.98,671.58 C294.62,670.22 294.72,671.08 296.95,679.83 C298.02,684.05 301.60,699.20 304.90,713.50 C308.20,727.80 312.77,746.70 315.07,755.50 C317.37,764.30 320.96,778.07 323.05,786.10 C327.86,804.57 328.97,812.50 329.63,833.00 C330.17,849.79 330.40,852.00 331.63,852.00 C332.01,852.00 332.02,844.01 331.66,834.25 ZM 386.26 822.68 C389.43,820.49 391.81,818.48 391.55,818.22 C390.81,817.47 378.72,825.33 378.20,826.89 C377.65,828.54 378.26,828.22 386.26,822.68 ZM 327.54 655.45 C343.07,651.03 355.60,646.57 353.44,646.23 C351.44,645.92 319.00,655.30 316.00,657.06 C313.03,658.80 318.41,658.05 327.54,655.45 ZM 363.08 622.50 C377.07,616.21 379.35,615.00 377.23,615.00 C371.26,615.00 336.00,632.21 336.00,635.12 C336.00,635.66 338.92,634.46 342.50,632.46 C346.07,630.46 355.34,625.98 363.08,622.50 ZM 330.98 609.25 C330.97,607.11 330.76,606.83 330.00,608.00 C328.74,609.96 328.74,612.00 330.00,612.00 C330.55,612.00 330.99,610.76 330.98,609.25 ZM 325.98 607.25 C325.97,605.11 325.76,604.83 325.00,606.00 C323.74,607.96 323.74,610.00 325.00,610.00 C325.55,610.00 325.99,608.76 325.98,607.25 ZM 331.97 601.75 C331.94,598.99 331.78,598.77 330.89,600.31 C330.31,601.31 330.08,602.77 330.38,603.56 C331.31,605.97 332.00,605.18 331.97,601.75 ZM 332.93 591.25 C332.87,587.88 332.76,587.72 331.80,589.69 C331.22,590.90 331.01,592.59 331.34,593.44 C332.35,596.08 333.00,595.18 332.93,591.25 ZM 329.00 575.80 C329.00,572.74 328.70,571.90 327.90,572.70 C327.25,573.35 327.07,575.06 327.48,576.90 C328.42,581.19 329.00,580.77 329.00,575.80 ZM 334.00 569.83 C334.00,564.79 333.83,560.85 333.62,561.08 C333.41,561.31 332.92,565.44 332.53,570.25 C332.04,576.33 332.15,579.00 332.91,579.00 C333.62,579.00 334.00,575.78 334.00,569.83 ZM 161.41 579.87 C161.92,572.51 163.06,566.85 165.69,558.67 C168.76,549.13 169.39,545.53 170.01,534.00 C170.41,526.58 171.22,519.01 171.81,517.19 C172.41,515.37 175.89,507.94 179.55,500.69 C185.40,489.08 186.14,486.99 185.72,483.23 C185.46,480.88 182.63,468.17 179.43,454.99 L 173.63 431.02 L 175.81 428.70 C177.84,426.54 183.15,407.52 186.96,388.79 C187.94,383.99 188.65,382.76 191.47,381.02 C196.69,377.79 201.87,371.44 205.57,363.72 C207.44,359.82 208.75,356.41 208.48,356.15 C207.88,355.55 208.21,355.08 203.06,363.89 C198.97,370.89 190.46,380.40 189.06,379.54 C188.70,379.32 188.81,374.72 189.30,369.32 C190.35,357.71 188.74,321.35 186.45,304.92 C183.94,286.98 177.28,267.59 173.14,266.21 C172.49,266.00 172.87,267.35 173.97,269.23 C178.67,277.19 183.02,293.81 185.57,313.58 C188.31,334.78 186.53,384.53 182.88,388.45 C182.35,389.02 182.00,388.47 182.00,387.06 C182.00,383.79 177.00,359.82 175.94,358.00 C174.56,355.65 174.75,358.00 176.98,370.93 C180.56,391.74 180.57,394.90 177.01,409.75 C175.26,417.04 173.63,423.00 173.38,423.00 C173.12,423.00 171.96,422.11 170.80,421.03 C166.90,417.39 129.52,402.83 114.00,398.89 C109.88,397.84 102.61,396.43 97.85,395.74 L 89.20 394.49 L 96.13 375.50 C105.75,349.16 118.95,310.28 118.45,309.78 C117.82,309.16 120.83,291.25 122.62,285.00 C124.39,278.79 133.43,262.16 139.33,254.24 C146.12,245.13 155.07,239.73 174.79,232.83 C181.23,230.57 190.28,226.99 194.89,224.86 C199.50,222.74 203.73,221.00 204.29,221.00 C204.84,221.00 209.17,224.71 213.90,229.25 C222.10,237.12 236.46,247.87 237.45,246.88 C237.71,246.62 234.24,243.75 229.75,240.50 C221.73,234.70 207.00,221.44 207.00,220.02 C207.00,219.63 208.82,218.48 211.04,217.48 L 215.08 215.66 L 219.79 220.21 C235.48,235.39 258.07,248.22 276.90,252.65 C285.13,254.58 301.82,254.84 308.66,253.13 C315.01,251.55 321.42,246.30 323.05,241.33 C323.79,239.11 324.01,235.39 323.63,231.74 L 323.01 225.77 L 325.75 227.52 C327.26,228.48 329.43,230.11 330.56,231.13 C331.70,232.16 333.23,233.00 333.96,233.00 C334.69,233.00 339.61,234.97 344.89,237.37 C350.18,239.77 357.51,242.72 361.19,243.93 C369.62,246.69 378.31,252.27 383.66,258.36 C391.41,267.15 401.64,289.65 400.65,295.73 C400.00,299.78 389.98,325.00 389.03,325.00 C386.80,325.00 386.00,318.67 386.00,301.01 C386.00,289.49 385.61,281.88 385.00,281.50 C384.36,281.10 383.97,284.76 383.93,291.69 C383.89,297.64 383.54,304.52 383.16,307.00 L 382.47 311.50 L 379.13 302.00 C377.30,296.77 375.61,291.87 375.37,291.11 C375.14,290.34 374.70,289.97 374.38,290.29 C373.42,291.25 376.87,304.82 381.44,318.00 C387.97,336.89 389.33,344.18 388.76,357.35 C388.41,365.36 387.42,371.74 385.23,380.00 C383.40,386.94 381.90,395.66 381.46,402.00 C380.39,417.32 379.59,418.27 377.51,406.68 C376.53,401.28 375.38,397.23 374.95,397.68 C374.51,398.13 375.24,404.11 376.56,410.96 C379.06,423.98 383.49,462.97 384.51,481.00 C384.84,486.77 385.33,492.56 385.60,493.85 C386.54,498.35 383.82,495.47 377.81,485.60 C370.10,472.93 365.66,462.50 361.42,447.08 C359.54,440.26 357.78,434.44 357.50,434.17 C355.38,432.04 360.34,453.55 364.58,464.82 C368.05,474.03 374.64,485.97 383.90,499.81 C397.19,519.66 396.45,517.26 396.53,541.00 C396.57,552.28 396.98,565.44 397.44,570.25 C397.92,575.30 397.90,579.00 397.39,579.00 C396.90,578.99 395.04,576.17 393.26,572.72 C383.34,553.54 362.16,525.21 354.94,521.47 C351.34,519.60 342.83,519.55 326.00,521.27 C310.74,522.83 293.89,522.29 283.30,519.88 C272.51,517.44 255.98,520.97 239.50,529.24 C232.19,532.91 214.75,544.08 215.37,544.70 C215.91,545.24 219.46,543.47 232.07,536.37 C240.56,531.60 257.73,524.39 258.58,525.25 C258.76,525.42 255.44,528.35 251.20,531.74 C246.97,535.14 240.12,540.66 236.00,544.01 C224.89,553.05 215.80,558.40 199.41,565.56 C182.92,572.75 172.69,578.75 165.55,585.40 L 160.72 589.90 L 161.41 579.87 ZM 202.98 530.46 C213.39,526.52 215.55,524.78 207.28,527.01 C200.03,528.96 191.04,532.88 186.27,536.16 C180.10,540.40 181.01,541.45 187.48,537.55 C190.50,535.74 197.47,532.54 202.98,530.46 ZM 296.00 516.00 C296.00,514.81 294.26,514.81 291.50,516.00 C289.82,516.72 290.03,516.87 292.75,516.93 C294.54,516.97 296.00,516.55 296.00,516.00 ZM 320.58 515.76 C320.86,515.47 318.58,514.93 315.51,514.54 C309.77,513.83 297.00,514.74 297.00,515.87 C297.00,516.61 319.83,516.51 320.58,515.76 ZM 254.34 508.94 C253.61,508.21 252.19,508.18 249.89,508.85 L 246.50 509.82 L 250.95 509.91 C254.09,509.97 255.09,509.69 254.34,508.94 ZM 199.87 471.66 C210.43,454.56 219.77,437.73 226.04,424.50 C232.46,410.94 233.24,409.00 232.22,409.01 C231.82,409.02 228.02,415.88 223.77,424.26 C215.16,441.25 196.91,472.97 195.75,472.99 C195.34,473.00 194.97,472.21 194.94,471.25 C194.89,470.00 194.60,470.19 193.90,471.93 C193.37,473.27 193.17,475.01 193.47,475.79 C193.77,476.57 192.44,479.81 190.51,482.99 C186.59,489.43 185.96,491.80 189.18,488.00 L 191.30 485.50 L 190.65 490.35 C190.30,493.02 190.33,496.39 190.73,497.85 C191.25,499.76 191.66,498.04 192.21,491.66 C192.96,482.99 193.10,482.62 199.87,471.66 ZM 229.34 479.72 C237.42,467.47 242.29,458.03 248.43,442.72 C256.00,423.86 263.70,397.57 260.64,401.08 C260.44,401.31 258.35,407.35 256.01,414.50 C247.17,441.47 239.30,459.29 227.87,478.22 C224.64,483.56 222.00,488.20 222.00,488.53 C222.00,490.09 224.39,487.22 229.34,479.72 ZM 106.00 385.00 C106.00,384.45 104.85,384.00 103.44,384.00 C101.99,384.00 101.15,384.43 101.50,385.00 C101.84,385.55 102.99,386.00 104.06,386.00 C105.13,386.00 106.00,385.55 106.00,385.00 ZM 372.98 379.25 C372.98,378.29 372.53,376.83 372.00,376.00 C371.26,374.86 371.03,375.28 371.02,377.75 C371.01,379.54 371.45,381.00 372.00,381.00 C372.55,381.00 372.99,380.21 372.98,379.25 ZM 154.38 356.25 C151.49,347.59 147.90,334.53 146.39,327.23 C144.88,319.92 143.27,314.33 142.81,314.79 C141.96,315.64 145.74,335.99 148.60,346.00 C150.86,353.91 158.02,372.00 158.89,372.00 C159.30,372.00 157.27,364.91 154.38,356.25 ZM 172.93 345.25 C172.89,344.84 172.47,343.60 172.00,342.50 C171.24,340.73 171.13,340.81 171.07,343.25 C171.03,344.76 171.45,346.00 172.00,346.00 C172.55,346.00 172.97,345.66 172.93,345.25 ZM 201.97 314.75 C201.95,308.53 201.68,306.94 200.89,308.29 C199.95,309.91 200.59,323.00 201.62,323.00 C201.83,323.00 201.99,319.29 201.97,314.75 ZM 141.93 301.75 C141.89,300.51 141.47,298.60 141.00,297.50 C140.33,295.95 140.12,296.46 140.07,299.75 C140.03,302.09 140.45,304.00 141.00,304.00 C141.55,304.00 141.97,302.99 141.93,301.75 ZM 294.50 266.00 C294.86,265.42 293.84,265.00 292.06,265.00 C290.38,265.00 289.00,265.45 289.00,266.00 C289.00,266.55 290.10,267.00 291.44,267.00 C292.78,267.00 294.16,266.55 294.50,266.00 ZM 304.50 266.00 C304.16,265.45 303.01,265.00 301.94,265.00 C300.87,265.00 300.00,265.45 300.00,266.00 C300.00,266.55 301.15,267.00 302.56,267.00 C304.01,267.00 304.85,266.57 304.50,266.00 ZM 379.00 572.41 C374.25,570.35 370.27,566.39 367.52,561.00 C365.13,556.31 361.73,545.93 362.38,545.29 C362.58,545.08 364.27,544.68 366.13,544.38 L 369.50 543.85 L 378.25 557.83 C383.06,565.51 387.00,572.30 387.00,572.90 C387.00,574.44 383.15,574.20 379.00,572.41 ZM 260.67 556.33 C259.56,555.23 259.93,550.04 261.91,539.14 C262.94,533.44 264.40,528.21 265.14,527.50 C267.04,525.71 271.00,524.63 271.00,525.90 C271.00,528.07 266.04,555.13 265.47,556.04 C264.80,557.14 261.66,557.33 260.67,556.33 ZM 351.10 542.90 C350.42,535.15 349.62,528.17 349.32,527.40 C348.65,525.65 351.05,525.56 353.24,527.25 C354.47,528.20 355.14,531.69 356.01,541.72 C356.64,548.99 356.87,555.41 356.52,555.97 C356.17,556.54 355.08,557.00 354.11,557.00 C352.55,557.00 352.18,555.27 351.10,542.90 ZM 311.37 550.52 C311.13,549.88 311.06,544.67 311.21,538.93 L 311.50 528.50 L 318.00 527.84 C321.58,527.48 329.52,526.85 335.66,526.44 L 346.82 525.70 L 347.44 531.10 C347.79,534.07 348.16,538.73 348.28,541.46 L 348.50 546.43 L 342.00 547.63 C328.15,550.19 311.83,551.73 311.37,550.52 ZM 322.30 543.65 C323.51,542.35 326.30,540.72 328.50,540.03 C334.66,538.07 335.34,536.63 329.76,537.35 C325.48,537.90 324.86,537.72 323.39,535.48 C321.66,532.83 318.19,532.21 316.20,534.20 C314.45,535.95 314.73,542.05 316.65,544.17 C318.81,546.56 319.65,546.48 322.30,543.65 ZM 295.00 549.39 C277.32,546.72 271.76,545.53 271.29,544.31 C270.78,543.00 273.46,526.21 274.31,525.36 C274.53,525.14 282.39,525.72 291.79,526.65 L 308.87 528.34 L 308.65 538.92 L 308.43 549.50 L 302.96 549.64 C299.96,549.71 296.38,549.60 295.00,549.39 ZM 357.69 537.28 C357.37,534.14 357.34,531.33 357.62,531.04 C357.91,530.75 360.24,532.73 362.80,535.44 L 367.46 540.37 L 364.48 541.64 C359.01,543.97 358.34,543.54 357.69,537.28 ZM 252.25 541.29 C251.01,541.06 250.00,540.51 250.00,540.09 C250.00,539.23 259.49,531.00 260.47,531.00 C261.06,531.00 260.39,536.43 259.35,540.25 C258.87,541.97 257.11,542.23 252.25,541.29 ZM 385.47 410.35 C386.81,396.45 388.14,387.86 389.61,383.73 C394.49,370.00 395.56,349.40 392.05,336.40 L 389.90 328.43 L 393.78 319.96 C395.91,315.31 398.47,309.36 399.47,306.75 C402.37,299.12 402.86,299.90 405.03,315.50 C406.65,327.16 412.17,349.59 419.17,373.00 C422.54,384.27 425.35,395.06 425.40,396.96 C425.50,400.38 425.35,400.51 414.50,406.20 C401.95,412.78 395.37,415.45 389.16,416.48 L 384.82 417.21 L 385.47 410.35 ZM 403.00 343.83 C403.00,339.34 402.73,335.94 402.40,336.26 C401.47,337.20 401.26,352.00 402.18,352.00 C402.63,352.00 403.00,348.33 403.00,343.83 ZM 98.50 403.24 C92.96,400.28 94.20,399.24 101.50,400.75 C104.55,401.38 105.58,402.11 105.82,403.79 C106.24,406.67 104.71,406.55 98.50,403.24 ZM 291.75 105.84 C288.66,104.71 288.23,103.51 290.58,102.61 C293.36,101.54 294.47,101.96 295.66,104.51 C296.96,107.32 296.36,107.52 291.75,105.84 ZM 331.68 106.34 C330.92,105.58 332.81,103.00 334.12,103.00 C334.61,103.00 335.00,103.90 335.00,105.00 C335.00,106.92 333.04,107.71 331.68,106.34 ZM 302.64 104.50 C303.28,102.82 304.60,102.54 305.44,103.90 C305.74,104.39 305.28,105.06 304.41,105.40 C302.16,106.26 302.00,106.18 302.64,104.50 ZM 318.43 542.67 C317.41,540.03 318.41,535.50 320.00,535.50 C321.08,535.50 321.50,536.60 321.50,539.42 C321.50,543.38 319.51,545.49 318.43,542.67 Z" fill="rgba(135,149,155,1)"/>
</g>
</svg>